<?xml version="1.0" encoding="UTF-8"?>
<svg xmlns="http://www.w3.org/2000/svg" xmlns:xlink="http://www.w3.org/1999/xlink" width="810pt" height="809.999993pt" viewBox="0 0 810 809.999993" version="1.2">
<defs>
<clipPath id="clip1">
  <path d="M 238 179.519531 L 607.597656 179.519531 L 607.597656 630.058594 L 238 630.058594 Z M 238 179.519531 "/>
</clipPath>
</defs>
<g id="surface1">
<path style=" stroke:none;fill-rule:nonzero;fill:rgb(93.728638%,90.979004%,71.759033%);fill-opacity:1;" d="M 407.5625 586.953125 C 406.859375 586.953125 406.195312 587.257812 405.742188 587.785156 C 402.957031 591.023438 400.542969 594.566406 398.214844 598 C 396.15625 601.027344 394.027344 604.164062 391.675781 607.011719 L 391.527344 607.195312 C 389.238281 609.96875 386.871094 612.84375 383.972656 614.527344 C 382.632812 615.308594 381.09375 615.738281 379.636719 615.738281 C 378.066406 615.738281 376.757812 615.246094 375.945312 614.347656 C 375.117188 613.433594 374.785156 612.105469 374.957031 610.402344 C 375.03125 609.640625 374.792969 608.917969 374.285156 608.359375 C 373.746094 607.761719 372.957031 607.417969 372.117188 607.417969 C 371.070312 607.417969 370.128906 607.972656 369.65625 608.863281 C 367.671875 612.632812 368.476562 615.453125 369.5 617.15625 C 371.382812 620.273438 375.667969 622.285156 380.421875 622.285156 C 382.410156 622.285156 384.285156 621.910156 385.847656 621.199219 C 391.296875 618.714844 395.328125 613.480469 398.273438 609.65625 C 401.769531 605.117188 406.785156 598.167969 409.957031 590.320312 C 410.253906 589.570312 410.171875 588.761719 409.71875 588.09375 C 409.242188 587.390625 408.417969 586.953125 407.5625 586.953125 Z M 598.425781 426.402344 C 597.910156 425.4375 596.960938 424.863281 595.878906 424.863281 C 594.238281 424.863281 592.863281 426.179688 592.8125 427.789062 L 592.800781 428.066406 C 592.542969 436.152344 592.3125 443.136719 588.285156 450.042969 C 584.847656 455.9375 579.308594 461.351562 571.824219 466.136719 C 565.121094 470.421875 558.277344 473.359375 551.488281 474.863281 C 549.128906 475.390625 546.804688 475.644531 544.375 475.644531 C 540.375 475.644531 536.464844 474.945312 532.324219 474.203125 C 531.214844 474.003906 530.082031 473.800781 528.914062 473.605469 C 528.769531 473.578125 528.625 473.570312 528.476562 473.570312 C 527.269531 473.570312 526.117188 474.390625 525.726562 475.523438 C 525.371094 476.558594 525.710938 477.667969 526.59375 478.363281 C 530.589844 481.480469 536.183594 483.066406 543.21875 483.066406 C 543.222656 483.066406 543.222656 483.066406 543.222656 483.066406 C 545.742188 483.066406 548.414062 482.859375 551.15625 482.449219 C 559.945312 481.140625 568.816406 477.621094 577.519531 471.988281 C 590.503906 463.589844 607.660156 443.789062 598.425781 426.402344 Z M 480.0625 442.679688 C 469.625 446.992188 457.804688 450.449219 445.238281 452.957031 C 446.335938 454.714844 447.441406 456.503906 448.761719 458.15625 C 455.058594 466.042969 463.105469 470.351562 472.289062 474.046875 C 501.09375 485.648438 498.476562 525.554688 474.59375 541.128906 C 460.246094 550.484375 442.023438 555.519531 425.332031 558.488281 C 407.886719 561.59375 390.027344 562.074219 372.453125 559.789062 C 355.011719 557.523438 338.269531 551.898438 323.671875 541.871094 C 312.382812 534.117188 307.148438 521.632812 308.503906 508.085938 C 309.957031 493.5625 318.554688 481.382812 329.640625 472.339844 C 335.605469 467.472656 342.175781 463.476562 349.011719 459.949219 C 352.902344 457.941406 356.355469 455.867188 359.496094 453.453125 C 345.996094 450.914062 333.304688 447.277344 322.175781 442.679688 C 279.785156 425.179688 278.890625 381.636719 270.910156 342.164062 C 263.757812 306.808594 248.359375 238.269531 276.90625 217.59375 C 306.15625 196.402344 353.640625 185.046875 389.898438 185.042969 C 477.058594 185.039062 496.082031 196.402344 525.332031 217.59375 C 553.878906 238.269531 538.480469 306.808594 531.332031 342.164062 C 523.347656 381.636719 522.453125 425.179688 480.0625 442.679688 "/>
<path style=" stroke:none;fill-rule:nonzero;fill:rgb(25.489807%,72.549438%,23.529053%);fill-opacity:1;" d="M 590.164062 257.128906 C 586.347656 260.25 580.261719 257.902344 577.757812 254.242188 C 575.054688 250.296875 576.070312 243.816406 581.269531 242.625 C 583.734375 242.0625 586.460938 243.085938 588.160156 244.917969 C 588.183594 244.929688 588.207031 244.941406 588.226562 244.957031 C 591.925781 247.632812 594.429688 253.640625 590.164062 257.128906 Z M 508.941406 350.546875 C 508.6875 359.222656 509.90625 369.894531 505.003906 377.542969 C 504.609375 378.160156 503.675781 377.902344 503.644531 377.175781 C 503.246094 367.894531 504.269531 357.847656 504.921875 348.554688 C 505.234375 344.113281 505.828125 339.742188 507.023438 335.445312 C 508.335938 330.746094 510.214844 326.355469 510.414062 321.414062 C 510.460938 320.21875 512.113281 320.265625 512.234375 321.414062 C 513.238281 331.121094 509.230469 340.792969 508.941406 350.546875 Z M 500.082031 389.65625 C 498.84375 391.664062 497.285156 394.035156 495.183594 395.207031 C 494.304688 395.695312 493 394.871094 493.378906 393.820312 C 494.152344 391.664062 495.765625 389.777344 496.980469 387.84375 C 498.234375 385.84375 499.328125 383.886719 501.070312 382.265625 C 501.550781 381.8125 502.378906 382.125 502.378906 382.804688 C 502.386719 385.359375 501.402344 387.507812 500.082031 389.65625 Z M 488.625 333.34375 C 487.832031 331.519531 486.226562 328.882812 486.730469 326.792969 C 487.378906 324.128906 491.125 321.8125 493.027344 320.011719 C 496.242188 316.980469 499.277344 313.492188 503.238281 311.460938 C 503.808594 311.171875 504.457031 311.765625 504.128906 312.351562 C 502.433594 315.355469 500 317.488281 497.539062 319.890625 C 495.828125 321.5625 490.46875 325.257812 490.417969 327.875 C 490.378906 329.914062 493.929688 334.519531 494.816406 336.367188 C 495.808594 338.414062 496.015625 338.992188 495.59375 341.171875 C 495.464844 341.859375 494.652344 342.035156 494.117188 341.777344 C 490.890625 340.21875 489.988281 336.484375 488.625 333.34375 Z M 479.699219 323.496094 C 478.390625 324.871094 477.027344 326.230469 475.871094 327.730469 C 475.019531 328.835938 474.40625 330.046875 473.308594 330.929688 C 472.707031 331.421875 471.738281 331.300781 471.515625 330.457031 C 470.425781 326.351562 475.871094 322.324219 478.4375 319.808594 C 481.238281 317.066406 485.269531 312.742188 489.570312 313.492188 C 490.769531 313.699219 490.433594 315.550781 489.289062 315.554688 C 486.078125 315.5625 481.765625 321.332031 479.699219 323.496094 Z M 482.242188 403.535156 C 481.242188 404.875 479.671875 405.085938 478.074219 405.199219 C 476.273438 405.328125 474.175781 405.402344 472.488281 404.710938 C 471.347656 404.242188 471.199219 402.65625 472.488281 402.242188 C 474.054688 401.734375 475.789062 401.792969 477.417969 401.648438 C 478.890625 401.519531 480.597656 401.179688 481.867188 402.101562 C 482.28125 402.40625 482.605469 403.050781 482.242188 403.535156 Z M 460.550781 409.113281 C 458.519531 411.367188 455.203125 408.957031 454.691406 406.601562 C 454.089844 403.824219 456.550781 401.453125 459.273438 401.675781 C 460.5 401.777344 460.453125 403.394531 459.273438 403.546875 C 458.292969 403.671875 457.5 405.082031 457.933594 406 C 458.3125 406.804688 459.617188 407.242188 460.359375 407.636719 C 460.917969 407.933594 460.9375 408.679688 460.550781 409.113281 Z M 474.324219 345.496094 C 474.730469 346.820312 476.203125 346.816406 476.832031 347.875 C 476.988281 348.136719 476.984375 348.46875 476.832031 348.726562 C 476.003906 350.160156 474.023438 349.464844 473.023438 348.597656 C 471.742188 347.484375 471.238281 345.769531 471.496094 344.121094 C 471.871094 341.726562 475.613281 337.089844 477.753906 340.609375 C 478.195312 341.335938 477.316406 342.191406 476.597656 341.765625 C 475.101562 340.886719 474.058594 344.628906 474.324219 345.496094 Z M 452.253906 386.984375 C 456.203125 376.734375 460.605469 366.695312 466.089844 357.164062 C 466.878906 355.792969 468.738281 357 468.152344 358.371094 C 464.226562 367.570312 460.308594 376.769531 456.828125 386.148438 C 464.230469 388.054688 472.183594 389.125 479.066406 392.300781 C 480.34375 392.886719 479.585938 394.675781 478.402344 394.746094 C 470.105469 395.238281 461.453125 391.902344 453.652344 389.445312 C 452.703125 389.148438 451.851562 388.019531 452.253906 386.984375 Z M 451.132812 412.464844 C 449.230469 415.007812 444.992188 414.90625 442.09375 415.394531 C 440.277344 415.695312 439.464844 413.058594 441.316406 412.578125 C 443.101562 412.117188 444.882812 411.609375 446.691406 411.226562 C 448.234375 410.902344 449.464844 410.699219 450.882812 411.5 C 451.183594 411.671875 451.363281 412.160156 451.132812 412.464844 Z M 436.957031 407.882812 C 435.8125 406.722656 435.867188 405.140625 436.292969 403.675781 C 437.054688 401.042969 439.496094 397.394531 442.628906 399.574219 C 443.363281 400.085938 442.925781 401.484375 441.976562 401.121094 C 440.039062 400.375 439.164062 402.96875 438.792969 404.367188 C 438.292969 406.25 439.546875 406.492188 440.542969 407.746094 C 440.742188 407.996094 440.792969 408.464844 440.429688 408.632812 C 439.226562 409.175781 437.878906 408.8125 436.957031 407.882812 Z M 435.480469 415.132812 C 431.960938 417.863281 427.394531 418.1875 423.066406 418.839844 C 418.113281 419.582031 413.121094 420.039062 408.113281 420.132812 C 398.707031 420.3125 387.496094 420.15625 378.894531 415.898438 C 377.796875 415.359375 378.375 413.695312 379.496094 413.683594 C 389.03125 413.550781 398.492188 415.871094 408.113281 415.664062 C 413.402344 415.550781 418.707031 415.113281 423.929688 414.257812 C 427.644531 413.652344 431.171875 412.394531 434.925781 413.035156 C 435.800781 413.1875 436.199219 414.574219 435.480469 415.132812 Z M 381.964844 378.632812 C 383.417969 379.046875 382.773438 381.042969 381.359375 380.828125 C 380.691406 380.730469 380.777344 382.933594 380.949219 383.234375 C 381.28125 383.808594 382.039062 383.683594 382.320312 384.371094 C 382.457031 384.699219 382.28125 385.082031 382.070312 385.328125 C 381.378906 386.113281 380.230469 386.082031 379.40625 385.527344 C 378.398438 384.847656 378.136719 383.550781 378.15625 382.410156 C 378.199219 380.335938 379.539062 377.9375 381.964844 378.632812 Z M 377.25 405.640625 C 374.804688 407.953125 370.9375 405.714844 371.070312 402.507812 C 371.183594 399.777344 373.769531 396.019531 376.800781 397.925781 C 377.960938 398.65625 377.21875 400.636719 375.847656 400.195312 C 374.65625 399.8125 373.015625 403.976562 376.03125 403.546875 C 377.164062 403.386719 378.25 404.691406 377.25 405.640625 Z M 358.722656 369.886719 C 356.039062 368.28125 355.351562 363.332031 354.453125 360.710938 C 352.914062 356.222656 351.304688 351.757812 350.410156 347.085938 C 350.265625 346.328125 351.269531 345.835938 351.691406 346.546875 C 353.484375 349.578125 354.871094 352.765625 356.242188 356.011719 C 357.320312 358.574219 358.882812 365.296875 361.625 366.480469 C 364.082031 367.539062 369.949219 366.265625 372.675781 366.234375 C 375.914062 366.191406 378.980469 366.101562 382.007812 367.296875 C 383.039062 367.707031 383.003906 368.957031 382.007812 369.371094 C 377.859375 371.105469 373.089844 370.644531 368.660156 370.65625 C 365.78125 370.660156 361.320312 371.449219 358.722656 369.886719 Z M 362.539062 387.832031 C 356.824219 390.183594 349.617188 387.453125 343.753906 386.671875 C 336.9375 385.761719 330.078125 385.640625 323.226562 386.078125 C 323.21875 388.625 323.414062 391.132812 323.539062 393.695312 C 323.625 395.4375 321.046875 395.679688 320.589844 394.09375 C 319.65625 390.882812 319.515625 387.703125 319.597656 384.371094 C 319.625 383.300781 320.421875 382.640625 321.429688 382.542969 C 328.632812 381.835938 335.796875 381.878906 342.984375 382.839844 C 349.394531 383.691406 356.3125 384.597656 362.539062 386.21875 C 363.414062 386.449219 363.246094 387.539062 362.539062 387.832031 Z M 306.816406 356.933594 C 305.8125 351.683594 306.183594 345.9375 305.628906 340.601562 C 305.058594 335.101562 304.375 329.609375 303.691406 324.121094 C 303.628906 323.601562 304.425781 323.546875 304.566406 324.003906 C 307.03125 332.167969 308.542969 340.453125 309.535156 348.914062 C 309.75 350.757812 309.488281 353.414062 310.144531 355.171875 C 311.386719 358.5 312.589844 358 315.429688 358.472656 C 319.148438 359.097656 322.75 359.640625 326.195312 361.21875 C 327.609375 361.871094 326.761719 363.839844 325.460938 363.921875 C 320.914062 364.210938 315.171875 363.335938 310.898438 361.761719 C 308.554688 360.898438 307.292969 359.425781 306.816406 356.933594 Z M 309.730469 380.148438 C 308.601562 381.226562 306.484375 380.9375 305.179688 380.332031 C 303.847656 379.714844 302.847656 378.523438 302.777344 377.019531 C 302.652344 374.457031 305.640625 371.5 308.054688 373.410156 C 308.464844 373.730469 308.152344 374.277344 307.785156 374.433594 C 306.726562 374.878906 304.636719 375.816406 305.496094 377.324219 C 306.328125 378.785156 308.570312 378.097656 309.730469 379.082031 C 310.035156 379.34375 310.003906 379.886719 309.730469 380.148438 Z M 303.257812 308.683594 C 306.578125 308.085938 309.550781 309.617188 312.707031 310.5 C 316.34375 311.511719 320.300781 311.769531 323.722656 313.382812 C 324.472656 313.738281 324.265625 314.964844 323.496094 315.140625 C 316.460938 316.726562 309.886719 312.171875 303.257812 310.753906 C 302.25 310.539062 302.214844 308.867188 303.257812 308.683594 Z M 298.109375 359.394531 C 297.847656 360.355469 296.492188 360.3125 296.210938 359.394531 C 291.292969 343.449219 290.574219 327.148438 290.015625 310.535156 C 289.992188 309.882812 291.066406 309.71875 291.171875 310.378906 C 292.566406 319.105469 293.691406 327.851562 294.6875 336.628906 C 295.203125 341.132812 295.78125 345.441406 297.074219 349.78125 C 298.066406 353.125 299.050781 355.957031 298.109375 359.394531 Z M 290.394531 295.839844 C 290.855469 293.808594 292.90625 291.441406 295.121094 292.550781 C 295.972656 292.976562 295.789062 294.113281 295.121094 294.582031 C 294.609375 294.941406 293.429688 295.90625 293.542969 296.640625 C 293.636719 297.234375 294.9375 297.445312 295.382812 297.695312 C 295.96875 298.03125 296.558594 298.535156 296.242188 299.269531 C 295.902344 300.054688 294.644531 300.289062 293.886719 300.25 C 291.601562 300.128906 289.871094 298.121094 290.394531 295.839844 Z M 314.3125 297.246094 C 315.589844 297.65625 315.371094 299.613281 313.992188 299.609375 C 313.320312 299.609375 311.589844 300.84375 312.039062 301.683594 C 312.214844 302.015625 312.882812 302.175781 313.191406 302.355469 C 313.613281 302.601562 314.054688 302.851562 314.308594 303.285156 C 314.488281 303.597656 314.410156 303.953125 314.1875 304.214844 C 313.492188 305.039062 311.964844 304.984375 311.042969 304.660156 C 309.761719 304.210938 308.851562 302.992188 308.804688 301.632812 C 308.707031 298.898438 311.667969 296.40625 314.3125 297.246094 Z M 315.722656 289.777344 C 317.433594 289.605469 319.339844 291.027344 321.023438 291.449219 C 322.730469 291.878906 324.53125 291.785156 325.964844 292.890625 C 326.464844 293.28125 326.179688 293.980469 325.785156 294.28125 C 324.089844 295.566406 321.453125 294.796875 319.613281 294.164062 C 317.898438 293.574219 315.488281 292.746094 314.871094 290.894531 C 314.675781 290.300781 315.1875 289.832031 315.722656 289.777344 Z M 329.699219 299.71875 C 330.929688 298.457031 332.957031 297.640625 334.226562 299.273438 C 334.828125 300.050781 334.285156 301.113281 333.265625 300.921875 C 332.730469 300.820312 331.480469 302.613281 331.230469 303.222656 C 330.847656 304.152344 330.792969 305.304688 331.144531 306.253906 C 332.03125 308.648438 334.5 308.34375 335.886719 309.992188 C 336.214844 310.382812 336.226562 310.871094 335.886719 311.257812 C 334.542969 312.777344 332.085938 311.816406 330.699219 310.835938 C 328.984375 309.625 327.78125 307.699219 327.609375 305.589844 C 327.441406 303.476562 328.214844 301.25 329.699219 299.71875 Z M 341.097656 324.070312 C 342.386719 324.042969 342.609375 325.957031 341.394531 326.285156 C 340.191406 326.609375 337.785156 328.476562 338.851562 329.964844 C 339.664062 331.097656 341.382812 330.914062 341.972656 332.347656 C 342.089844 332.636719 341.949219 333.039062 341.734375 333.242188 C 340.734375 334.203125 339.035156 333.773438 337.925781 333.210938 C 336.628906 332.5625 335.675781 331.460938 335.46875 330 C 335 326.648438 337.984375 324.144531 341.097656 324.070312 Z M 344.597656 365.191406 C 344.40625 365.777344 343.746094 365.917969 343.289062 365.535156 C 340.699219 363.339844 340.328125 359.304688 339.480469 356.15625 C 338.480469 352.460938 337.246094 348.628906 337.539062 344.765625 C 337.628906 343.59375 339.382812 343.222656 339.675781 344.476562 C 340.589844 348.359375 341.980469 352.101562 343.125 355.921875 C 344.011719 358.894531 345.597656 362.121094 344.597656 365.191406 Z M 354.003906 373.484375 C 354.667969 373.851562 354.625 374.8125 354.003906 375.191406 C 349.699219 377.800781 343.289062 376.597656 338.378906 376.5625 C 332.675781 376.519531 326.292969 376.851562 320.847656 375.019531 C 320.011719 374.738281 319.929688 373.484375 320.847656 373.242188 C 326.417969 371.773438 332.644531 372.386719 338.378906 372.394531 C 343.285156 372.402344 349.617188 371.070312 354.003906 373.484375 Z M 351.148438 305.265625 C 352.4375 304.605469 353.730469 305.039062 354.378906 306.289062 C 354.847656 307.191406 354.078125 308.0625 353.203125 307.917969 C 353.175781 307.929688 353.171875 307.933594 353.140625 307.941406 C 353.144531 307.929688 353.148438 307.917969 353.152344 307.902344 C 353.148438 307.902344 353.140625 307.902344 353.136719 307.902344 C 353.027344 307.988281 352.929688 308.125 352.863281 308.246094 C 352.695312 308.546875 352.609375 309.035156 352.726562 309.367188 C 352.828125 309.671875 353.023438 309.863281 353.285156 310.046875 C 353.378906 310.109375 353.496094 310.164062 353.601562 310.21875 C 353.789062 310.261719 353.957031 310.351562 354.097656 310.476562 C 354.074219 310.464844 354.066406 310.457031 354.039062 310.433594 C 355.066406 310.71875 355.199219 312.097656 354.328125 312.644531 C 351.71875 314.285156 348.914062 311.574219 349.089844 308.832031 C 349.175781 307.476562 349.890625 305.90625 351.148438 305.265625 Z M 357.015625 323.796875 C 358.355469 324.070312 358.007812 326.148438 356.699219 326.136719 C 355.785156 326.125 355.675781 328.042969 355.78125 328.664062 C 355.941406 329.597656 356.664062 329.972656 357.226562 330.628906 C 357.5 330.949219 357.53125 331.398438 357.226562 331.714844 C 356.449219 332.523438 355.175781 332.320312 354.347656 331.679688 C 353.355469 330.917969 352.945312 329.699219 352.914062 328.480469 C 352.847656 326.0625 354.1875 323.21875 357.015625 323.796875 Z M 374.550781 321.789062 C 374.648438 322.371094 374.398438 322.867188 373.824219 323.0625 C 370.378906 324.238281 368.640625 318.5 369.214844 316.070312 C 370.046875 312.585938 373.4375 310.5625 376.871094 311.339844 C 378.347656 311.675781 377.859375 313.6875 376.535156 313.804688 C 374.714844 313.960938 372.8125 315.382812 372.6875 317.292969 C 372.566406 319.210938 374.273438 320.113281 374.550781 321.789062 Z M 369.160156 304.027344 C 374.601562 303.546875 379.710938 302.699219 384.160156 306.484375 C 386.0625 308.101562 387.398438 310.160156 388.902344 312.121094 C 390.96875 314.808594 393.503906 316.644531 395.847656 319.023438 C 396.269531 319.449219 396.097656 320.246094 395.488281 320.394531 C 391.445312 321.355469 388.710938 318.316406 386.398438 315.34375 C 384.132812 312.429688 382.328125 309.121094 378.773438 307.644531 C 375.757812 306.386719 372.089844 306.886719 368.878906 306.113281 C 367.636719 305.8125 368.035156 304.128906 369.160156 304.027344 Z M 383.875 285.53125 C 386.476562 280.566406 391.308594 276.039062 395.050781 271.882812 C 398.453125 268.105469 402.335938 263.113281 407.417969 261.699219 C 407.933594 261.550781 408.382812 262.140625 408.109375 262.601562 C 405.429688 267.210938 400.445312 270.828125 396.878906 274.820312 C 393.308594 278.8125 389.878906 284.105469 385.277344 286.933594 C 384.367188 287.492188 383.421875 286.40625 383.875 285.53125 Z M 393.578125 248.210938 C 394.128906 249.289062 396.054688 250.160156 397.03125 250.84375 C 398.035156 251.542969 399.03125 252.253906 400.050781 252.929688 C 401.871094 254.148438 403.972656 255.109375 405.207031 256.972656 C 405.515625 257.4375 405.117188 258.179688 404.542969 258.128906 C 401.617188 257.878906 398.980469 255.523438 396.699219 253.832031 C 395.199219 252.722656 391.675781 250.84375 391.875 248.675781 C 391.949219 247.84375 393.132812 247.335938 393.578125 248.210938 Z M 414.296875 341.175781 C 415.347656 341.914062 414.726562 343.921875 413.355469 343.398438 C 411.644531 342.742188 409.789062 346.867188 411.800781 347.328125 C 413.023438 347.601562 413.101562 349.269531 412.136719 349.878906 C 410.796875 350.71875 409.28125 350.308594 408.246094 349.164062 C 407.113281 347.914062 407.113281 346.09375 407.582031 344.558594 C 408.4375 341.746094 411.371094 339.128906 414.296875 341.175781 Z M 395.273438 377.046875 C 394.171875 377.144531 393.53125 375.777344 394.042969 374.910156 C 396.929688 370.011719 403.757812 375.230469 407.21875 371.191406 C 411.222656 366.515625 403.679688 357.726562 402.667969 352.914062 C 402.554688 352.371094 403.136719 352.078125 403.542969 352.402344 C 408.328125 356.195312 413.738281 365.234375 411.625 371.582031 C 409.304688 378.554688 400.769531 376.566406 395.273438 377.046875 Z M 391.441406 388.296875 C 393.601562 386.425781 397.082031 386.574219 399.78125 386.253906 C 402.734375 385.90625 405.667969 385.273438 408.445312 386.53125 C 409.089844 386.824219 408.898438 387.667969 408.445312 388 C 404.371094 391.003906 398.511719 388.53125 394.4375 391.050781 C 390.421875 393.539062 391.273438 401.738281 389.445312 405.859375 C 389.113281 406.601562 387.941406 406.347656 387.757812 405.636719 C 386.945312 402.464844 387.742188 399.03125 388.398438 395.875 C 388.925781 393.359375 389.382812 390.089844 391.441406 388.296875 Z M 396.351562 334.660156 C 396.628906 334.972656 396.621094 335.515625 396.210938 335.730469 C 393.03125 337.386719 390.78125 332.847656 391.210938 330.289062 C 391.851562 326.523438 395.421875 324.707031 398.957031 325.207031 C 399.894531 325.339844 399.847656 326.878906 398.957031 327.058594 C 397.085938 327.429688 394.902344 328.328125 394.261719 330.308594 C 393.589844 332.382812 395.167969 333.335938 396.351562 334.660156 Z M 417.648438 377.777344 C 418.828125 378.589844 418.121094 380.796875 416.609375 380.234375 C 415.746094 379.910156 415.140625 381.386719 415.046875 382.070312 C 414.917969 382.992188 415.574219 383.328125 416.308594 383.679688 C 417.164062 384.089844 417.070312 385.390625 416.308594 385.828125 C 415.125 386.503906 413.796875 386.144531 412.855469 385.214844 C 411.855469 384.226562 411.609375 382.765625 411.886719 381.425781 C 412.386719 378.953125 414.992188 375.953125 417.648438 377.777344 Z M 426.980469 394.039062 C 427.402344 394.460938 427.457031 395.277344 426.980469 395.6875 C 425.679688 396.820312 423.785156 396.019531 422.960938 394.675781 C 422.097656 393.257812 422.234375 391.488281 423.097656 390.101562 C 423.933594 388.765625 425.417969 387.597656 427.03125 387.445312 C 428.804688 387.28125 429.917969 388.558594 430.730469 389.972656 C 431.3125 390.988281 429.875 392.164062 429.082031 391.246094 C 428.613281 390.703125 428.207031 390.097656 427.421875 390.34375 C 426.863281 390.519531 426.273438 391.101562 425.949219 391.566406 C 425.035156 392.878906 426.171875 393.230469 426.980469 394.039062 Z M 421.3125 363.078125 C 424.472656 357.164062 429.148438 351.6875 432.96875 346.171875 C 436.71875 340.757812 440.355469 335.175781 444.613281 330.144531 C 445.210938 329.4375 446.261719 330.34375 445.847656 331.09375 C 440.960938 339.917969 434.6875 348.09375 428.980469 356.402344 C 427.652344 358.332031 425.546875 360.507812 424.671875 362.675781 C 422.988281 366.828125 425.5625 368.230469 428.609375 370.460938 C 431.78125 372.78125 435.503906 374.429688 438.304688 377.183594 C 439.546875 378.40625 438.253906 380.3125 436.671875 379.976562 C 431.6875 378.90625 426.882812 374.695312 423.296875 371.183594 C 420.472656 368.414062 419.34375 366.757812 421.3125 363.078125 Z M 427.792969 333.957031 C 429.242188 332.679688 431.402344 330.132812 433.539062 330.410156 C 434.132812 330.488281 434.699219 330.878906 434.675781 331.550781 C 434.617188 333.789062 432.019531 335.335938 430.449219 336.609375 C 429.0625 337.730469 427.089844 339.925781 425.144531 339.636719 C 424.71875 339.570312 424.347656 339.128906 424.246094 338.738281 C 423.742188 336.847656 426.601562 335.011719 427.792969 333.957031 Z M 433.855469 265.269531 C 435.914062 265.921875 437.332031 266.902344 438.96875 268.253906 C 441.722656 270.53125 444.277344 271.703125 447.3125 273.46875 C 451.769531 276.066406 457.132812 280.402344 459.554688 284.957031 C 459.773438 285.378906 459.398438 286.015625 458.886719 285.824219 C 453.46875 283.808594 450.0625 278.601562 445.097656 275.769531 C 443.027344 274.585938 440.929688 273.703125 439.164062 272.074219 C 437.09375 270.171875 435.582031 267.742188 433.53125 265.824219 C 433.292969 265.597656 433.539062 265.167969 433.855469 265.269531 Z M 462.28125 320.246094 C 462.574219 322.132812 464.308594 323.238281 465.472656 324.578125 C 465.765625 324.914062 465.5625 325.398438 465.121094 325.433594 C 461.832031 325.675781 459.4375 321.734375 460.101562 318.722656 C 460.898438 315.125 464.289062 313.761719 467.457031 315.277344 C 468.28125 315.671875 467.691406 316.976562 466.84375 316.726562 C 464.472656 316.023438 461.84375 317.453125 462.28125 320.246094 Z M 476.972656 308.472656 C 477.601562 309.433594 478.625 309.328125 479.347656 310.035156 C 479.746094 310.421875 479.816406 310.964844 479.527344 311.425781 C 479.324219 311.746094 478.9375 312.03125 478.535156 311.996094 C 475.386719 311.71875 473.09375 308.855469 473.964844 305.679688 C 474.367188 304.222656 475.453125 302.957031 476.949219 302.585938 C 478.523438 302.191406 480.152344 302.933594 481.550781 303.585938 C 482.574219 304.0625 481.835938 305.710938 480.789062 305.386719 C 479.675781 305.042969 478.167969 304.515625 477.152344 305.363281 C 476.226562 306.136719 476.367188 307.546875 476.972656 308.472656 Z M 481.332031 292.714844 C 482.257812 292.652344 482.691406 293.898438 482.074219 294.507812 C 477.628906 298.886719 470.953125 300.417969 466.195312 304.609375 C 461.960938 308.339844 459.488281 313.953125 454.902344 317.175781 C 454.109375 317.730469 452.960938 316.800781 453.265625 315.917969 C 456.789062 305.582031 470.226562 293.46875 481.332031 292.714844 Z M 493.617188 294.753906 C 494.6875 291.789062 498.476562 290.726562 501.066406 292.359375 C 502.230469 293.097656 501.210938 294.808594 499.992188 294.195312 C 498.503906 293.441406 496.3125 294.171875 495.9375 295.914062 C 495.53125 297.773438 497.257812 298.464844 497.667969 299.976562 C 497.746094 300.253906 497.628906 300.628906 497.351562 300.757812 C 495.980469 301.402344 494.621094 300.152344 493.964844 299.007812 C 493.25 297.761719 493.128906 296.097656 493.617188 294.753906 Z M 502.476562 286.65625 C 503.769531 284.148438 507.164062 284.136719 509.109375 285.855469 C 511.339844 287.828125 512.070312 291.835938 510.585938 294.421875 C 509.6875 295.992188 507.699219 295.09375 507.5 293.589844 C 507.296875 292.035156 507.96875 290.40625 507.109375 288.945312 C 506.4375 287.796875 505.128906 287.480469 504.019531 288.191406 C 503.019531 288.839844 501.988281 287.597656 502.476562 286.65625 Z M 509.6875 247.222656 C 509.667969 246.894531 509.574219 246.566406 509.394531 246.277344 C 509.144531 245.875 508.761719 245.601562 508.332031 245.492188 C 498.613281 234.339844 478.742188 233.066406 464.464844 232.308594 C 462.527344 232.207031 460.589844 232.132812 458.648438 232.078125 C 458.277344 231.519531 457.660156 231.164062 456.945312 231.164062 C 456.824219 231.164062 456.699219 231.175781 456.566406 231.195312 C 455.570312 231.359375 454.625 231.640625 453.710938 231.992188 C 450.460938 231.972656 447.203125 232.015625 443.949219 232.109375 C 446.929688 230.792969 449.785156 229.234375 452.132812 227.035156 C 452.734375 226.476562 452.917969 225.601562 452.597656 224.800781 C 452.285156 224.007812 451.5625 223.496094 450.667969 223.496094 C 450.664062 223.496094 450.664062 223.496094 450.664062 223.496094 C 446.351562 223.679688 442.453125 225.367188 438.6875 227 C 437.976562 227.308594 437.269531 227.617188 436.558594 227.914062 C 435.492188 228.359375 434.359375 228.925781 433.160156 229.523438 C 430.1875 231.011719 426.816406 232.699219 423.925781 232.699219 C 423.070312 232.699219 422.3125 232.554688 421.609375 232.257812 C 418.335938 230.878906 415.105469 228.582031 411.984375 226.359375 C 410.617188 225.390625 409.324219 224.46875 408.027344 223.613281 C 403.417969 220.601562 398.703125 217.65625 394.292969 214.925781 C 394.03125 214.761719 393.734375 214.675781 393.429688 214.675781 C 392.707031 214.675781 392.015625 215.175781 391.761719 215.890625 C 391.527344 216.550781 391.710938 217.234375 392.253906 217.671875 C 397.414062 221.890625 402.3125 225.53125 407.226562 228.804688 C 409.824219 230.535156 412.476562 232.257812 415.125 233.945312 C 402.488281 235.101562 389.882812 236.542969 377.390625 237.664062 C 370.960938 238.242188 364.527344 238.820312 358.09375 239.398438 C 355.347656 236.050781 352.460938 232.824219 349.320312 229.992188 C 348.957031 229.664062 348.511719 229.492188 348.039062 229.492188 C 347.367188 229.492188 346.734375 229.851562 346.386719 230.433594 C 346.046875 231.007812 346.039062 231.683594 346.367188 232.292969 C 347.828125 234.984375 349.570312 237.53125 351.410156 239.996094 C 346.480469 240.441406 341.546875 240.882812 336.617188 241.328125 C 336.570312 241.117188 336.507812 240.90625 336.390625 240.714844 C 336.03125 240.113281 335.402344 239.742188 334.75 239.742188 C 334.242188 239.742188 333.769531 239.972656 333.417969 240.386719 C 333.054688 240.816406 332.683594 241.265625 332.320312 241.710938 C 331.636719 241.773438 330.957031 241.832031 330.273438 241.898438 C 330.296875 241.609375 330.28125 241.308594 330.203125 241.011719 C 329.933594 240.015625 329.140625 239.375 328.171875 239.375 C 328.09375 239.375 328.011719 239.378906 327.929688 239.386719 C 323.464844 239.855469 319.164062 241.394531 315 242.878906 C 314.652344 243.003906 314.304688 243.121094 313.960938 243.246094 C 306.019531 243.785156 298.074219 244.070312 290.105469 243.738281 C 289.644531 243.585938 289.179688 243.433594 288.714844 243.308594 C 288.527344 243.253906 288.335938 243.230469 288.152344 243.230469 C 287.753906 243.230469 287.386719 243.359375 287.078125 243.578125 C 286.855469 243.5625 286.628906 243.554688 286.402344 243.539062 C 285.601562 243.484375 284.53125 244.214844 284.40625 245.058594 C 284.351562 245.453125 284.292969 245.84375 284.242188 246.238281 C 284.054688 246.332031 283.910156 246.5 283.894531 246.769531 C 283.832031 247.765625 283.789062 248.765625 283.734375 249.761719 C 283.621094 250.554688 283.507812 251.347656 283.394531 252.144531 C 283.328125 252.589844 283.402344 252.992188 283.570312 253.335938 C 282.582031 277.054688 283.863281 300.839844 287.019531 324.363281 C 288.734375 337.164062 291.050781 349.859375 293.984375 362.441406 C 296.398438 372.804688 298.238281 384.863281 305.21875 393.3125 C 318.863281 409.839844 343.621094 416.398438 363.8125 419.675781 C 386.113281 423.296875 408.480469 425.011719 430.816406 421.121094 C 453.347656 417.191406 478.371094 412.894531 496.9375 398.492188 C 506.117188 391.371094 508.375 382.546875 509.941406 371.453125 C 511.703125 358.964844 513.054688 346.421875 513.964844 333.84375 C 514.914062 320.726562 515.414062 307.570312 515.390625 294.417969 C 515.371094 282.273438 515.664062 269.523438 513.773438 257.492188 C 513.140625 253.429688 511.703125 250.046875 509.6875 247.222656 "/>
<path style=" stroke:none;fill-rule:nonzero;fill:rgb(94.509888%,27.449036%,23.139954%);fill-opacity:1;" d="M 228.761719 219.441406 C 225.652344 221.808594 223.890625 225.65625 224.148438 229.5 C 221.820312 227.113281 218.824219 225.652344 215.347656 225.78125 C 211.714844 225.910156 208.476562 227.953125 206.75 231.152344 C 202.148438 239.660156 211.6875 246.878906 218.105469 250.769531 C 221.859375 253.046875 226.527344 255.304688 231 253.894531 C 234.929688 252.65625 237.417969 249.082031 239.332031 245.65625 C 241.648438 241.519531 243.46875 237.039062 243.894531 232.285156 C 244.28125 227.96875 243.671875 222.699219 240.640625 219.347656 C 237.515625 215.890625 232.121094 216.882812 228.761719 219.441406 Z M 570.851562 228.371094 C 567.121094 231.273438 561.976562 234.378906 557.277344 231.835938 C 552.773438 229.398438 549.3125 224.128906 546.757812 219.828125 C 543.882812 214.996094 541.753906 209.628906 540.625 204.121094 C 539.695312 199.589844 539.589844 193.917969 543.804688 190.949219 C 548.050781 187.957031 553.757812 189.359375 557.375 192.648438 C 559.765625 194.820312 561.371094 197.492188 562.582031 200.375 C 565.355469 197.28125 569.15625 195.285156 573.335938 194.863281 C 578.433594 194.355469 582.222656 196.753906 582.769531 201.996094 C 583.8125 211.90625 578.585938 222.355469 570.851562 228.371094 "/>
<g clip-path="url(#clip1)" clip-rule="nonzero">
<path style=" stroke:none;fill-rule:nonzero;fill:rgb(50.588989%,79.998779%,16.079712%);fill-opacity:1;" d="M 261.835938 204.503906 C 264.457031 207.285156 262.757812 211.527344 259.605469 212.984375 C 256.515625 214.414062 251.292969 213.722656 250.789062 209.671875 C 250.472656 207.167969 252.382812 203.964844 254.898438 203.570312 C 255.53125 203.300781 256.226562 203.152344 256.804688 203.089844 C 258.578125 202.890625 260.5625 203.152344 261.835938 204.503906 Z M 247.375 277.980469 C 246.425781 279.207031 245.148438 279.816406 243.597656 279.59375 C 242.210938 279.402344 240.296875 278.878906 239.367188 277.738281 C 238.097656 276.175781 238.351562 272.707031 240.066406 271.410156 C 240.394531 270.863281 240.980469 270.429688 241.570312 270.1875 C 242.964844 269.609375 244.867188 269.824219 246.183594 270.539062 C 248.914062 272.019531 249.160156 275.671875 247.375 277.980469 Z M 554.1875 282.382812 C 552.914062 280.820312 553.167969 277.347656 554.882812 276.054688 C 555.210938 275.503906 555.800781 275.070312 556.386719 274.828125 C 557.78125 274.25 559.6875 274.464844 561.003906 275.179688 C 563.730469 276.664062 563.980469 280.316406 562.195312 282.621094 C 561.242188 283.851562 559.96875 284.457031 558.417969 284.238281 C 557.027344 284.042969 555.117188 283.527344 554.1875 282.382812 Z M 514.5625 187.402344 C 513.296875 185.839844 513.550781 182.371094 515.265625 181.078125 C 515.589844 180.527344 516.179688 180.09375 516.765625 179.847656 C 518.164062 179.273438 520.066406 179.488281 521.378906 180.199219 C 524.113281 181.683594 524.359375 185.339844 522.574219 187.644531 C 521.625 188.875 520.347656 189.480469 518.796875 189.261719 C 517.40625 189.0625 515.496094 188.546875 514.5625 187.402344 Z M 407.535156 442.460938 C 375.417969 442.460938 314.144531 437.332031 294.078125 406.832031 C 288.703125 398.65625 289.195312 399.457031 296.90625 403.863281 C 305.128906 408.566406 311.796875 415.335938 320.546875 419.605469 C 337.957031 428.105469 357.210938 432.246094 376.316406 434.664062 C 397.992188 437.402344 419.875 437.921875 441.382812 433.617188 C 454.53125 430.980469 467.359375 426.738281 479.457031 420.949219 C 483.191406 419.160156 500.371094 406.539062 504.070312 407.546875 C 512.832031 409.941406 475.65625 429.109375 470.179688 431.167969 C 450.109375 438.714844 428.976562 442.460938 407.535156 442.460938 Z M 576.542969 470.476562 C 568.792969 475.488281 560.054688 479.300781 550.890625 480.667969 C 543.511719 481.765625 533.878906 481.765625 527.707031 476.945312 C 526.882812 476.300781 527.816406 475.246094 528.617188 475.382812 C 536.867188 476.769531 543.4375 478.5 551.878906 476.625 C 559.320312 474.972656 566.390625 471.746094 572.792969 467.65625 C 579.507812 463.363281 585.789062 457.898438 589.839844 450.949219 C 594.148438 443.566406 594.34375 436.113281 594.613281 427.851562 C 594.652344 426.71875 596.257812 426.167969 596.832031 427.246094 C 605.476562 443.511719 589.300781 462.222656 576.542969 470.476562 Z M 408.28125 589.644531 C 405.527344 596.472656 401.324219 602.738281 396.84375 608.558594 C 393.671875 612.675781 389.960938 617.34375 385.097656 619.558594 C 378.722656 622.460938 366.691406 618.351562 371.25 609.707031 C 371.710938 608.84375 373.261719 609.203125 373.160156 610.222656 C 372.429688 617.574219 379.703125 619.101562 384.882812 616.082031 C 388.128906 614.195312 390.710938 611.015625 393.066406 608.160156 C 398.125 602.027344 401.925781 594.976562 407.105469 588.960938 C 407.550781 588.441406 408.546875 588.992188 408.28125 589.644531 Z M 602.417969 417.460938 C 596.484375 409.832031 587.414062 409.109375 578.636719 411.628906 C 557.726562 417.632812 538.207031 429.792969 521.132812 442.984375 C 513.359375 448.992188 503.738281 456.054688 502.273438 466.542969 C 501.488281 472.152344 503.664062 478.882812 508.324219 481.980469 C 503.917969 482.859375 500.066406 485.226562 496.226562 487.996094 C 490.039062 492.457031 484.023438 497.175781 478.0625 501.921875 C 465.738281 511.730469 453.695312 521.890625 441.839844 532.257812 C 429.71875 542.855469 417.828125 553.71875 406.003906 564.648438 C 395.039062 574.777344 382.460938 584.550781 373.203125 596.328125 C 367.390625 603.722656 361.417969 616.578125 369.890625 624.378906 C 373.457031 627.664062 379.316406 629.355469 384.03125 629.945312 C 389.816406 630.667969 394.058594 627.800781 397.5 623.382812 C 406.273438 612.121094 413.382812 599.410156 421.9375 587.925781 C 430.933594 575.84375 440.429688 564.140625 450.425781 552.875 C 461.417969 540.492188 473 528.628906 485.113281 517.339844 C 496.664062 506.578125 510.570312 490.875 527.199219 489.121094 C 540.5 500.660156 561.492188 499.929688 576.203125 491.546875 C 593.226562 481.855469 603.941406 463.234375 606.828125 444.191406 C 608.191406 435.179688 608.292969 425.015625 602.417969 417.460938 Z M 361.074219 457.207031 C 360.007812 456.839844 360.117188 455.058594 361.355469 455.140625 C 375.613281 456.109375 389.453125 458.699219 403.84375 458.507812 C 410.96875 458.414062 418.097656 457.941406 425.171875 457.082031 C 432.039062 456.246094 439.28125 454 446.222656 454.410156 C 446.921875 454.453125 447.273438 455.421875 446.597656 455.792969 C 440.839844 458.988281 433.632812 459.539062 427.191406 460.371094 C 419.785156 461.335938 412.328125 461.882812 404.863281 462.011719 C 390.675781 462.246094 374.625 461.847656 361.074219 457.207031 Z M 309.730469 380.148438 C 308.601562 381.226562 306.484375 380.9375 305.179688 380.332031 C 303.847656 379.714844 302.847656 378.523438 302.777344 377.019531 C 302.652344 374.457031 305.640625 371.5 308.054688 373.410156 C 308.464844 373.730469 308.152344 374.277344 307.785156 374.433594 C 306.726562 374.878906 304.636719 375.816406 305.496094 377.324219 C 306.328125 378.785156 308.570312 378.097656 309.730469 379.082031 C 310.035156 379.34375 310.003906 379.886719 309.730469 380.148438 Z M 310.492188 371.207031 C 309.230469 370.335938 307.320312 369.878906 306.355469 371.308594 C 303.851562 371.175781 301.558594 373.054688 301.152344 375.851562 C 300.644531 379.421875 303.335938 383.886719 307.257812 383.804688 C 311.136719 383.726562 313.164062 379.269531 312.894531 375.890625 C 312.746094 374.089844 312.023438 372.273438 310.492188 371.207031 Z M 290.394531 295.839844 C 290.855469 293.808594 292.90625 291.441406 295.121094 292.550781 C 295.972656 292.976562 295.789062 294.113281 295.121094 294.582031 C 294.609375 294.941406 293.429688 295.90625 293.542969 296.640625 C 293.636719 297.234375 294.9375 297.445312 295.382812 297.695312 C 295.96875 298.03125 296.558594 298.535156 296.242188 299.269531 C 295.902344 300.054688 294.644531 300.289062 293.886719 300.25 C 291.601562 300.128906 289.871094 298.121094 290.394531 295.839844 Z M 296.789062 304.277344 C 301.074219 304.496094 304.273438 300.984375 303.476562 296.722656 C 303.082031 294.605469 301.742188 292.816406 299.914062 291.699219 C 298.417969 290.78125 296.238281 289.882812 294.644531 290.847656 C 293.425781 290.160156 291.96875 290.078125 290.695312 290.878906 C 289.066406 291.898438 288.859375 293.769531 289.027344 295.519531 C 289.425781 299.753906 292.203125 304.042969 296.789062 304.277344 Z M 308.804688 301.632812 C 308.707031 298.898438 311.667969 296.40625 314.3125 297.246094 C 315.589844 297.65625 315.371094 299.613281 313.992188 299.609375 C 313.320312 299.609375 311.589844 300.84375 312.039062 301.683594 C 312.214844 302.015625 312.882812 302.175781 313.191406 302.355469 C 313.613281 302.601562 314.054688 302.851562 314.308594 303.285156 C 314.488281 303.597656 314.410156 303.953125 314.1875 304.214844 C 313.492188 305.039062 311.964844 304.984375 311.042969 304.660156 C 309.761719 304.210938 308.851562 302.992188 308.804688 301.632812 Z M 320.894531 303.570312 C 321.214844 301.125 319.996094 298.726562 318.171875 297.15625 C 316.570312 295.773438 313.949219 294.175781 311.773438 294.683594 C 311.488281 294.746094 311.292969 295.046875 311.304688 295.332031 C 309.925781 295.378906 308.570312 296.359375 307.773438 297.421875 C 305.046875 301.074219 306.722656 306.375 310.785156 308.144531 C 314.578125 309.792969 320.285156 308.1875 320.894531 303.570312 Z M 338.851562 329.964844 C 339.664062 331.097656 341.382812 330.914062 341.972656 332.347656 C 342.089844 332.636719 341.949219 333.039062 341.734375 333.242188 C 340.734375 334.203125 339.035156 333.773438 337.925781 333.210938 C 336.628906 332.5625 335.675781 331.460938 335.46875 330 C 335 326.648438 337.984375 324.144531 341.097656 324.070312 C 342.386719 324.042969 342.609375 325.957031 341.394531 326.285156 C 340.191406 326.609375 337.785156 328.476562 338.851562 329.964844 Z M 344.023438 322.707031 C 342.519531 322.136719 340.367188 321.855469 339.292969 323.21875 C 335.929688 321.304688 333.050781 325.300781 333.015625 328.667969 C 332.964844 333.488281 336.777344 337.292969 341.675781 336.507812 C 346.179688 335.785156 349.425781 331.363281 347.960938 326.859375 C 347.34375 324.953125 345.898438 323.421875 344.023438 322.707031 Z M 335.886719 311.257812 C 334.542969 312.777344 332.085938 311.816406 330.699219 310.835938 C 328.984375 309.625 327.78125 307.699219 327.609375 305.589844 C 327.441406 303.476562 328.214844 301.25 329.699219 299.71875 C 330.929688 298.457031 332.957031 297.640625 334.226562 299.273438 C 334.828125 300.050781 334.285156 301.113281 333.265625 300.921875 C 332.730469 300.820312 331.480469 302.613281 331.230469 303.222656 C 330.847656 304.152344 330.792969 305.304688 331.144531 306.253906 C 332.03125 308.648438 334.5 308.34375 335.886719 309.992188 C 336.214844 310.382812 336.226562 310.871094 335.886719 311.257812 Z M 331.476562 295.730469 C 331.335938 295.78125 331.21875 295.882812 331.125 296 C 329.679688 295.863281 328.25 296.085938 327.007812 297.085938 C 324.789062 298.875 324.285156 302.285156 324.054688 304.933594 C 323.5 311.214844 326.914062 316.078125 333.46875 316.441406 C 338.617188 316.726562 344.679688 313.5625 343.878906 307.640625 C 343.226562 302.816406 337.34375 293.453125 331.476562 295.730469 Z M 354.328125 312.644531 C 351.71875 314.285156 348.914062 311.574219 349.089844 308.832031 C 349.175781 307.476562 349.890625 305.90625 351.148438 305.265625 C 352.4375 304.605469 353.730469 305.039062 354.378906 306.289062 C 354.847656 307.191406 354.078125 308.0625 353.203125 307.917969 C 353.175781 307.929688 353.171875 307.933594 353.140625 307.941406 C 353.144531 307.929688 353.148438 307.917969 353.152344 307.902344 C 353.148438 307.902344 353.140625 307.902344 353.136719 307.902344 C 353.027344 307.988281 352.929688 308.125 352.863281 308.246094 C 352.695312 308.546875 352.609375 309.035156 352.726562 309.367188 C 352.828125 309.671875 353.023438 309.863281 353.285156 310.046875 C 353.378906 310.109375 353.496094 310.164062 353.601562 310.21875 C 353.789062 310.261719 353.957031 310.351562 354.097656 310.476562 C 354.074219 310.464844 354.066406 310.457031 354.039062 310.433594 C 355.066406 310.71875 355.199219 312.097656 354.328125 312.644531 Z M 356.8125 303.515625 C 355.613281 302.804688 353.917969 302.679688 352.644531 302.988281 C 352.175781 303.101562 351.632812 303.304688 351.09375 303.578125 C 349.203125 303.988281 347.945312 305.71875 347.464844 307.527344 C 346.351562 311.746094 349.152344 316.351562 353.445312 317.183594 C 357.570312 317.980469 362.277344 315.410156 362.828125 311.007812 C 363.253906 307.621094 360.242188 303.917969 356.8125 303.515625 Z M 369.214844 316.070312 C 370.046875 312.585938 373.4375 310.5625 376.871094 311.339844 C 378.347656 311.675781 377.859375 313.6875 376.535156 313.804688 C 374.714844 313.960938 372.8125 315.382812 372.6875 317.292969 C 372.566406 319.210938 374.273438 320.113281 374.550781 321.789062 C 374.648438 322.371094 374.398438 322.867188 373.824219 323.0625 C 370.378906 324.238281 368.640625 318.5 369.214844 316.070312 Z M 373.371094 327.953125 C 378.558594 329.285156 383.945312 326.15625 385.257812 320.957031 C 386.296875 316.851562 384.257812 312.15625 380.496094 310.40625 C 380.460938 310.125 380.308594 309.859375 379.964844 309.675781 C 369.71875 304.136719 360.753906 324.726562 373.371094 327.953125 Z M 356.699219 326.136719 C 355.785156 326.125 355.675781 328.042969 355.78125 328.664062 C 355.941406 329.597656 356.664062 329.972656 357.226562 330.628906 C 357.5 330.949219 357.53125 331.398438 357.226562 331.714844 C 356.449219 332.523438 355.175781 332.320312 354.347656 331.679688 C 353.355469 330.917969 352.945312 329.699219 352.914062 328.480469 C 352.847656 326.0625 354.1875 323.21875 357.015625 323.796875 C 358.355469 324.070312 358.007812 326.148438 356.699219 326.136719 Z M 356.035156 321.335938 C 355.792969 321.464844 355.644531 321.6875 355.582031 321.929688 C 352.714844 321.90625 350.128906 324.480469 349.886719 327.542969 C 349.570312 331.441406 352.582031 335.46875 356.65625 335.53125 C 360.675781 335.59375 364.425781 332.136719 364.324219 328.054688 C 364.242188 324.496094 359.925781 319.199219 356.035156 321.335938 Z M 376.800781 397.925781 C 377.960938 398.65625 377.21875 400.636719 375.847656 400.195312 C 374.65625 399.8125 373.015625 403.976562 376.03125 403.546875 C 377.164062 403.386719 378.25 404.691406 377.25 405.640625 C 374.804688 407.953125 370.9375 405.714844 371.070312 402.507812 C 371.183594 399.777344 373.769531 396.019531 376.800781 397.925781 Z M 373.257812 407.746094 C 376.398438 408.277344 381.101562 405.414062 381.511719 402.144531 C 381.859375 399.355469 379.136719 393.464844 375.644531 395.023438 C 375.273438 395.191406 375.0625 395.570312 374.996094 395.976562 C 373.34375 396.527344 371.59375 398.410156 370.871094 399.527344 C 369.074219 402.304688 369.292969 407.070312 373.257812 407.746094 Z M 381.359375 380.828125 C 380.691406 380.730469 380.777344 382.933594 380.949219 383.234375 C 381.28125 383.808594 382.039062 383.683594 382.320312 384.371094 C 382.457031 384.699219 382.28125 385.082031 382.070312 385.328125 C 381.378906 386.113281 380.230469 386.082031 379.40625 385.527344 C 378.398438 384.847656 378.136719 383.550781 378.15625 382.410156 C 378.199219 380.335938 379.539062 377.9375 381.964844 378.632812 C 383.417969 379.046875 382.773438 381.042969 381.359375 380.828125 Z M 386.480469 382.167969 C 386.277344 379.394531 382.640625 375.480469 379.824219 377.726562 C 379.765625 377.777344 379.738281 377.851562 379.695312 377.914062 C 379.652344 377.921875 379.609375 377.921875 379.570312 377.929688 C 378.070312 378.246094 376.867188 379.363281 376.214844 380.726562 C 374.675781 383.929688 376.96875 387.542969 380.375 388.035156 C 383.726562 388.527344 386.730469 385.5 386.480469 382.167969 Z M 429.082031 391.246094 C 428.613281 390.703125 428.207031 390.097656 427.421875 390.34375 C 426.863281 390.519531 426.273438 391.101562 425.949219 391.566406 C 425.035156 392.878906 426.171875 393.230469 426.980469 394.039062 C 427.402344 394.460938 427.457031 395.277344 426.980469 395.6875 C 425.679688 396.820312 423.785156 396.019531 422.960938 394.675781 C 422.097656 393.257812 422.234375 391.488281 423.097656 390.101562 C 423.933594 388.765625 425.417969 387.597656 427.03125 387.445312 C 428.804688 387.28125 429.917969 388.558594 430.730469 389.972656 C 431.3125 390.988281 429.875 392.164062 429.082031 391.246094 Z M 434.5625 393.347656 C 435.082031 390.800781 431.957031 387.761719 429.289062 387.011719 C 429.441406 386.429688 429.167969 385.757812 428.394531 385.828125 C 425.054688 386.125 421.335938 387.25 420.617188 391.042969 C 419.945312 394.585938 423.097656 397.386719 426.40625 397.675781 C 429.183594 397.925781 433.90625 396.539062 434.5625 393.347656 Z M 411.886719 381.425781 C 412.386719 378.953125 414.992188 375.953125 417.648438 377.777344 C 418.828125 378.589844 418.121094 380.796875 416.609375 380.234375 C 415.746094 379.910156 415.140625 381.386719 415.046875 382.070312 C 414.917969 382.992188 415.574219 383.328125 416.308594 383.679688 C 417.164062 384.089844 417.070312 385.390625 416.308594 385.828125 C 415.125 386.503906 413.796875 386.144531 412.855469 385.214844 C 411.855469 384.226562 411.609375 382.765625 411.886719 381.425781 Z M 410.453125 383.71875 C 411.203125 386.355469 414.34375 387.816406 416.882812 386.933594 C 419.636719 385.972656 420.972656 382.589844 419.84375 379.964844 C 418.925781 377.839844 415.328125 375.308594 413.3125 377.550781 C 413.085938 377.800781 413.027344 378.113281 413.089844 378.402344 C 411.085938 379.253906 409.804688 381.4375 410.453125 383.71875 Z M 391.210938 330.289062 C 390.78125 332.847656 393.03125 337.386719 396.210938 335.730469 C 396.621094 335.515625 396.628906 334.972656 396.351562 334.660156 C 395.167969 333.335938 393.589844 332.382812 394.261719 330.308594 C 394.902344 328.328125 397.085938 327.429688 398.957031 327.058594 C 399.847656 326.878906 399.894531 325.339844 398.957031 325.207031 C 398.476562 325.136719 397.996094 325.121094 397.523438 325.132812 C 397.605469 324.90625 397.789062 324.710938 398.101562 324.640625 C 402.636719 323.597656 407.269531 328.679688 406.058594 333.136719 C 404.886719 337.429688 398.691406 340.78125 394.464844 340.105469 C 389.582031 339.328125 387.839844 333.964844 389.300781 329.730469 C 390.28125 326.875 394.679688 321.105469 397.492188 325.136719 C 394.492188 325.257812 391.761719 327.046875 391.210938 330.289062 Z M 413.355469 343.398438 C 411.644531 342.742188 409.789062 346.867188 411.800781 347.328125 C 413.023438 347.601562 413.101562 349.269531 412.136719 349.878906 C 410.796875 350.71875 409.28125 350.308594 408.246094 349.164062 C 407.113281 347.914062 407.113281 346.09375 407.582031 344.558594 C 408.4375 341.746094 411.371094 339.128906 414.296875 341.175781 C 415.347656 341.914062 414.726562 343.921875 413.355469 343.398438 Z M 413.695312 338.484375 C 410.949219 338.050781 408.136719 341.125 406.878906 343.53125 C 405.136719 346.863281 405.707031 352.402344 410.445312 352.609375 C 414.363281 352.777344 418.433594 349.1875 419.070312 345.417969 C 419.535156 342.664062 417.28125 336.917969 413.695312 338.484375 Z M 460.550781 409.113281 C 458.519531 411.367188 455.203125 408.957031 454.691406 406.601562 C 454.089844 403.824219 456.550781 401.453125 459.273438 401.675781 C 460.5 401.777344 460.453125 403.394531 459.273438 403.546875 C 458.292969 403.671875 457.5 405.082031 457.933594 406 C 458.3125 406.804688 459.617188 407.242188 460.359375 407.636719 C 460.917969 407.933594 460.9375 408.679688 460.550781 409.113281 Z M 461.6875 400.054688 C 458.679688 399.5625 455.652344 400.714844 453.976562 403.332031 C 453.175781 404.570312 452.519531 406.421875 453.035156 407.890625 C 453.542969 409.328125 455.007812 409.988281 456.363281 410.402344 C 458.953125 411.191406 464.46875 411.292969 465.683594 408.164062 C 466.558594 405.917969 464.644531 402.625 462.445312 401.324219 C 462.5625 400.773438 462.351562 400.164062 461.6875 400.054688 Z M 436.292969 403.675781 C 437.054688 401.042969 439.496094 397.394531 442.628906 399.574219 C 443.363281 400.085938 442.925781 401.484375 441.976562 401.121094 C 440.039062 400.375 439.164062 402.96875 438.792969 404.367188 C 438.292969 406.25 439.546875 406.492188 440.542969 407.746094 C 440.742188 407.996094 440.792969 408.464844 440.429688 408.632812 C 439.226562 409.175781 437.878906 408.8125 436.957031 407.882812 C 435.8125 406.722656 435.867188 405.140625 436.292969 403.675781 Z M 436.847656 409.203125 C 439.550781 410.761719 443.179688 409.222656 444.582031 406.617188 C 446.316406 403.398438 444.585938 398.972656 441.660156 397.066406 C 441.132812 396.71875 440.464844 396.988281 440.113281 397.449219 C 438.304688 397.117188 436.160156 399.023438 435.324219 400.707031 C 433.964844 403.453125 433.847656 407.46875 436.847656 409.203125 Z M 477.753906 340.609375 C 478.195312 341.335938 477.316406 342.191406 476.597656 341.765625 C 475.101562 340.886719 474.058594 344.628906 474.324219 345.496094 C 474.730469 346.820312 476.203125 346.816406 476.832031 347.875 C 476.988281 348.136719 476.984375 348.46875 476.832031 348.726562 C 476.003906 350.160156 474.023438 349.464844 473.023438 348.597656 C 471.742188 347.484375 471.238281 345.769531 471.496094 344.121094 C 471.871094 341.726562 475.613281 337.089844 477.753906 340.609375 Z M 469.375 344.96875 C 469.464844 348.941406 473.605469 351.207031 477.175781 349.980469 C 480.367188 348.882812 482.867188 345.25 481.480469 341.886719 C 480.863281 340.390625 479.570312 339.410156 478.167969 338.691406 C 476.851562 338.015625 474.972656 336.75 473.453125 336.921875 C 472.722656 337.007812 472.34375 337.496094 472.382812 338.183594 C 470.460938 339.710938 469.328125 342.894531 469.375 344.96875 Z M 466.84375 316.726562 C 464.472656 316.023438 461.84375 317.453125 462.28125 320.246094 C 462.574219 322.132812 464.308594 323.238281 465.472656 324.578125 C 465.765625 324.914062 465.5625 325.398438 465.121094 325.433594 C 461.832031 325.675781 459.4375 321.734375 460.101562 318.722656 C 460.898438 315.125 464.289062 313.761719 467.457031 315.277344 C 468.28125 315.671875 467.691406 316.976562 466.84375 316.726562 Z M 464.835938 314.484375 C 461.578125 313.753906 458.214844 315.910156 457.75 319.347656 C 457.207031 323.355469 460.320312 326.820312 464.242188 327.226562 C 467.960938 327.609375 472.722656 325.183594 472.070312 320.855469 C 471.707031 318.457031 467.722656 313.285156 464.835938 314.484375 Z M 473.964844 305.679688 C 474.367188 304.222656 475.453125 302.957031 476.949219 302.585938 C 478.523438 302.191406 480.152344 302.933594 481.550781 303.585938 C 482.574219 304.0625 481.835938 305.710938 480.789062 305.386719 C 479.675781 305.042969 478.167969 304.515625 477.152344 305.363281 C 476.226562 306.136719 476.367188 307.546875 476.972656 308.472656 C 477.601562 309.433594 478.625 309.328125 479.347656 310.035156 C 479.746094 310.421875 479.816406 310.964844 479.527344 311.425781 C 479.324219 311.746094 478.9375 312.03125 478.535156 311.996094 C 475.386719 311.71875 473.09375 308.855469 473.964844 305.679688 Z M 476.523438 313.097656 C 479.941406 314.324219 485.378906 313.21875 486.359375 309.183594 C 487.070312 306.257812 484.632812 302.761719 481.714844 302.089844 C 479.039062 300.15625 474.992188 300.785156 473.15625 303.761719 C 470.972656 307.296875 472.679688 311.710938 476.523438 313.097656 Z M 493.964844 299.007812 C 493.25 297.761719 493.128906 296.097656 493.617188 294.753906 C 494.6875 291.789062 498.476562 290.726562 501.066406 292.359375 C 502.230469 293.097656 501.210938 294.808594 499.992188 294.195312 C 498.503906 293.441406 496.3125 294.171875 495.9375 295.914062 C 495.53125 297.773438 497.257812 298.464844 497.667969 299.976562 C 497.746094 300.253906 497.628906 300.628906 497.351562 300.757812 C 495.980469 301.402344 494.621094 300.152344 493.964844 299.007812 Z M 498.804688 302.789062 C 502.554688 301.472656 507.144531 295.023438 502.332031 292.238281 C 501.984375 292.035156 501.519531 291.839844 501.007812 291.6875 C 500.96875 291.347656 500.78125 291.023438 500.347656 290.824219 C 496.371094 288.972656 491.234375 290.859375 490.507812 295.550781 C 489.792969 300.167969 494.273438 304.382812 498.804688 302.789062 Z M 504.128906 312.351562 C 502.433594 315.355469 500 317.488281 497.539062 319.890625 C 495.828125 321.5625 490.46875 325.257812 490.417969 327.875 C 490.378906 329.914062 493.929688 334.519531 494.816406 336.367188 C 495.808594 338.414062 496.015625 338.992188 495.59375 341.171875 C 495.464844 341.859375 494.652344 342.035156 494.117188 341.777344 C 490.890625 340.21875 489.988281 336.484375 488.625 333.34375 C 487.832031 331.519531 486.226562 328.882812 486.730469 326.792969 C 487.378906 324.128906 491.125 321.8125 493.027344 320.011719 C 496.242188 316.980469 499.277344 313.492188 503.238281 311.460938 C 503.808594 311.171875 504.457031 311.765625 504.128906 312.351562 Z M 508.734375 299.066406 C 508.4375 299.898438 508.160156 300.730469 507.867188 301.5625 C 507.632812 301.6875 507.414062 301.863281 507.230469 302.113281 C 500.695312 310.933594 490.847656 316.300781 483.65625 324.484375 C 481.925781 326.449219 480.863281 327.800781 481.8125 330.328125 C 482.785156 332.90625 485.519531 335.550781 487.1875 337.777344 C 489.296875 340.585938 491.417969 343.382812 493.53125 346.1875 C 494.414062 347.355469 496.046875 347.199219 496.574219 345.789062 C 501.519531 332.5 506.75 318.640625 509.714844 304.648438 C 509.910156 304.398438 510.113281 304.164062 510.304688 303.910156 C 510.828125 303.199219 510.6875 302.5 510.246094 302.011719 C 510.402344 301.210938 510.554688 300.40625 510.6875 299.605469 C 510.90625 298.328125 509.183594 297.832031 508.734375 299.066406 Z M 388.398438 395.875 C 388.925781 393.359375 389.382812 390.089844 391.441406 388.296875 C 393.601562 386.425781 397.082031 386.574219 399.78125 386.253906 C 402.734375 385.90625 405.667969 385.273438 408.445312 386.53125 C 409.089844 386.824219 408.898438 387.667969 408.445312 388 C 404.371094 391.003906 398.511719 388.53125 394.4375 391.050781 C 390.421875 393.539062 391.273438 401.738281 389.445312 405.859375 C 389.113281 406.601562 387.941406 406.347656 387.757812 405.636719 C 386.945312 402.464844 387.742188 399.03125 388.398438 395.875 Z M 410.878906 393.453125 C 413.625 396.859375 415.53125 400.800781 418.378906 404.179688 C 419.402344 405.398438 418.785156 407.425781 417.027344 407.425781 C 413.097656 407.433594 409.179688 407.128906 405.308594 406.429688 C 402.492188 405.929688 398.203125 405.71875 396.894531 402.828125 C 396.699219 402.382812 396.765625 401.847656 397.222656 401.589844 C 399.707031 400.164062 402.363281 401.726562 404.992188 402.304688 C 407.640625 402.890625 410.316406 403.238281 413.007812 403.433594 C 411.0625 400.761719 409.347656 397.835938 408.738281 394.699219 C 408.523438 393.582031 410 392.367188 410.878906 393.453125 Z M 383.488281 408.566406 C 391.792969 409.851562 400.15625 410.597656 408.558594 410.839844 C 412.675781 410.953125 416.804688 410.957031 420.925781 410.839844 C 423.292969 410.769531 426.144531 411.246094 427.835938 409.3125 C 428.398438 408.671875 428.4375 407.972656 428.105469 407.21875 C 426.371094 403.265625 422.320312 399.75 419.527344 396.480469 C 416.011719 392.378906 412.5625 388.121094 408.792969 384.257812 C 405.925781 381.320312 405.140625 381.027344 401.152344 382.058594 C 397.492188 382.996094 393.652344 383.824219 390.078125 385.160156 C 389.886719 384.121094 388.292969 383.839844 387.894531 385.046875 C 387.757812 385.46875 387.628906 385.890625 387.496094 386.308594 C 387.128906 386.613281 387.011719 387.097656 387.097656 387.5625 C 385.183594 393.804688 383.746094 400.222656 382.367188 406.59375 C 382.203125 407.363281 382.59375 408.429688 383.488281 408.566406 Z M 319.597656 384.371094 C 319.625 383.300781 320.421875 382.640625 321.429688 382.542969 C 328.632812 381.835938 335.796875 381.878906 342.984375 382.839844 C 349.394531 383.691406 356.3125 384.597656 362.539062 386.21875 C 363.414062 386.449219 363.246094 387.539062 362.539062 387.832031 C 356.824219 390.183594 349.617188 387.453125 343.753906 386.671875 C 336.9375 385.761719 330.078125 385.640625 323.226562 386.078125 C 323.21875 388.625 323.414062 391.132812 323.539062 393.695312 C 323.625 395.4375 321.046875 395.679688 320.589844 394.09375 C 319.65625 390.882812 319.515625 387.703125 319.597656 384.371094 Z M 360.035156 405.535156 C 359.859375 406.863281 358.777344 408.109375 357.273438 407.640625 C 348.972656 405.035156 339.53125 403.269531 331.816406 399.214844 C 330.738281 398.652344 331.25 396.9375 332.425781 396.960938 C 340.246094 397.082031 348.402344 400.203125 355.964844 402.648438 C 356.304688 399.277344 356.851562 395.769531 359.605469 393.792969 C 359.945312 393.550781 360.574219 393.707031 360.746094 394.089844 C 362.390625 397.722656 360.542969 401.726562 360.035156 405.535156 Z M 316.34375 397.582031 C 316.421875 398.054688 316.894531 398.453125 317.332031 398.570312 C 333.042969 402.933594 348.675781 407.375 364.101562 412.683594 C 365.085938 413.019531 366.066406 412.136719 366.078125 411.175781 C 366.214844 401.765625 368.9375 392.316406 370.808594 383.121094 C 371.027344 382.039062 370.339844 381.089844 369.214844 381.03125 C 351.824219 380.1875 334.339844 379.4375 316.925781 379.765625 C 315.5 379.792969 315.003906 381.207031 315.429688 382.203125 C 315.429688 382.210938 315.429688 382.21875 315.429688 382.230469 C 314.929688 387.382812 315.5 392.492188 316.34375 397.582031 Z M 330.636719 356.628906 C 327.707031 352.808594 326.425781 347.742188 325.015625 343.203125 C 323.609375 338.683594 321.582031 333.753906 321.699219 328.988281 C 321.722656 327.878906 323.183594 327.488281 323.765625 328.429688 C 326.277344 332.488281 327.125 337.6875 328.503906 342.238281 C 329.886719 346.789062 331.820312 351.503906 331.84375 356.300781 C 331.851562 357.007812 331 357.105469 330.636719 356.628906 Z M 325.460938 363.921875 C 320.914062 364.210938 315.171875 363.335938 310.898438 361.761719 C 308.554688 360.898438 307.292969 359.425781 306.816406 356.933594 C 305.8125 351.683594 306.183594 345.9375 305.628906 340.601562 C 305.058594 335.101562 304.375 329.609375 303.691406 324.121094 C 303.628906 323.601562 304.425781 323.546875 304.566406 324.003906 C 307.03125 332.167969 308.542969 340.453125 309.535156 348.914062 C 309.75 350.757812 309.488281 353.414062 310.144531 355.171875 C 311.386719 358.5 312.589844 358 315.429688 358.472656 C 319.148438 359.097656 322.75 359.640625 326.195312 361.21875 C 327.609375 361.871094 326.761719 363.839844 325.460938 363.921875 Z M 339.585938 368.574219 C 335.246094 354.609375 331.105469 340.566406 326.59375 326.65625 C 325.011719 321.78125 322.925781 320.640625 318.144531 318.945312 C 311.574219 316.621094 304.789062 314.082031 297.933594 312.789062 C 297.425781 312.695312 296.996094 312.785156 296.652344 312.988281 C 296.636719 312.902344 296.621094 312.816406 296.605469 312.734375 C 296.4375 311.878906 294.980469 312.0625 295.074219 312.9375 C 296.800781 329.929688 300.652344 346.546875 302.828125 363.453125 C 302.914062 364.101562 303.25 364.816406 303.972656 364.957031 C 315.089844 367.136719 326.320312 368.8125 337.492188 370.671875 C 338.695312 370.867188 340.003906 369.921875 339.585938 368.574219 Z M 351.691406 346.546875 C 353.484375 349.578125 354.871094 352.765625 356.242188 356.011719 C 357.320312 358.574219 358.882812 365.296875 361.625 366.480469 C 364.082031 367.539062 369.949219 366.265625 372.675781 366.234375 C 375.914062 366.191406 378.980469 366.101562 382.007812 367.296875 C 383.039062 367.707031 383.003906 368.957031 382.007812 369.371094 C 377.859375 371.105469 373.089844 370.644531 368.660156 370.65625 C 365.78125 370.660156 361.320312 371.449219 358.722656 369.886719 C 356.039062 368.28125 355.351562 363.332031 354.453125 360.710938 C 352.914062 356.222656 351.304688 351.757812 350.410156 347.085938 C 350.265625 346.328125 351.269531 345.835938 351.691406 346.546875 Z M 364.0625 343.21875 C 367.460938 340.949219 373.671875 337.398438 377.933594 337.789062 C 381 338.066406 383.667969 340.890625 385.667969 342.972656 C 389.027344 346.464844 391.449219 350.566406 393.707031 354.824219 C 395.71875 358.613281 399 362.621094 399.996094 366.757812 C 400.273438 367.894531 399.089844 368.773438 398.066406 368.238281 C 392.707031 365.445312 390.589844 357.210938 387.65625 352.242188 C 386.03125 349.5 383.042969 344.144531 379.886719 342.746094 C 375 340.585938 369.710938 344.433594 364.890625 345.183594 C 363.703125 345.371094 363.003906 343.921875 364.0625 343.21875 Z M 345.203125 343.722656 C 345.128906 343.5625 345.050781 343.40625 344.976562 343.246094 C 344.394531 341.996094 342.605469 343.085938 343.140625 344.320312 C 346.441406 351.917969 349.617188 359.570312 352.914062 367.167969 C 355.691406 373.570312 358.632812 373.203125 365.371094 373 C 373.320312 372.761719 381.277344 372.332031 389.207031 371.753906 C 392.832031 371.488281 402.78125 372.539062 404.699219 368.195312 C 406.660156 363.757812 399.085938 356.5625 396.867188 353.414062 C 394.589844 350.179688 392.320312 346.9375 390.050781 343.699219 C 388.382812 341.316406 386.496094 337.265625 384.171875 335.445312 C 380.296875 332.40625 373.691406 335.554688 369.480469 336.558594 C 361.578125 338.445312 353.769531 340.675781 346.039062 343.167969 C 345.675781 343.285156 345.402344 343.484375 345.203125 343.722656 Z M 485.1875 390.027344 C 484.53125 386.835938 485.609375 384.292969 486.480469 381.160156 C 487.609375 377.078125 488.789062 373.015625 490.015625 368.960938 C 490.296875 368.035156 492.125 363.808594 491.886719 362.898438 C 491.328125 360.738281 487.984375 361.0625 485.84375 360.808594 C 482.1875 360.378906 478.511719 360.414062 474.875 359.863281 C 473.738281 359.691406 473.796875 357.84375 474.875 357.625 C 479.964844 356.601562 485.4375 357.09375 490.53125 358.007812 C 493.203125 358.488281 495.253906 358.859375 495.539062 361.804688 C 495.730469 363.765625 494.546875 366.042969 493.992188 367.863281 C 493.070312 370.902344 492.175781 373.949219 491.308594 377.003906 C 490.058594 381.402344 489.617188 386.894531 486.585938 390.398438 C 486.183594 390.863281 485.308594 390.625 485.1875 390.027344 Z M 478.402344 394.746094 C 470.105469 395.238281 461.453125 391.902344 453.652344 389.445312 C 452.703125 389.148438 451.851562 388.019531 452.253906 386.984375 C 456.203125 376.734375 460.605469 366.695312 466.089844 357.164062 C 466.878906 355.792969 468.738281 357 468.152344 358.371094 C 464.226562 367.570312 460.308594 376.769531 456.828125 386.148438 C 464.230469 388.054688 472.183594 389.125 479.066406 392.300781 C 480.34375 392.886719 479.585938 394.675781 478.402344 394.746094 Z M 489.039062 397 C 495.835938 384.484375 499.371094 370.773438 502.722656 357.027344 C 503.003906 355.863281 502.183594 354.941406 501.058594 354.839844 C 488.402344 353.738281 475.738281 353.214844 463.03125 353.324219 C 461.699219 353.335938 461.132812 354.539062 461.335938 355.550781 C 453.996094 365.980469 448.820312 377.929688 445.101562 390.085938 C 444.871094 390.835938 445.375 391.863281 446.191406 392.003906 C 459.917969 394.410156 473.730469 396.28125 487.582031 397.835938 C 488.140625 397.898438 488.78125 397.472656 489.039062 397 Z M 445.847656 331.09375 C 440.960938 339.917969 434.6875 348.09375 428.980469 356.402344 C 427.652344 358.332031 425.546875 360.507812 424.671875 362.675781 C 422.988281 366.828125 425.5625 368.230469 428.609375 370.460938 C 431.78125 372.78125 435.503906 374.429688 438.304688 377.183594 C 439.546875 378.40625 438.253906 380.3125 436.671875 379.976562 C 431.6875 378.90625 426.882812 374.695312 423.296875 371.183594 C 420.472656 368.414062 419.34375 366.757812 421.3125 363.078125 C 424.472656 357.164062 429.148438 351.6875 432.96875 346.171875 C 436.71875 340.757812 440.355469 335.175781 444.613281 330.144531 C 445.210938 329.4375 446.261719 330.34375 445.847656 331.09375 Z M 448.402344 332.78125 C 450.511719 331.421875 454.300781 334.945312 455.867188 336.0625 C 457.828125 337.460938 459.195312 338.203125 458.691406 340.691406 C 457.699219 345.613281 453.957031 351.042969 451.726562 355.523438 C 449.449219 360.101562 447.523438 366.148438 443.480469 369.414062 C 442.953125 369.84375 441.882812 369.640625 441.964844 368.785156 C 442.550781 362.625 447.382812 356.402344 450.097656 350.886719 C 451.417969 348.195312 455.199219 342.964844 454.496094 340.070312 C 454.027344 338.121094 452.730469 338.027344 451.386719 336.777344 C 451.5 336.878906 448.347656 334.863281 449.257812 334.140625 C 448.886719 334.433594 448.488281 334.375 448.207031 334.007812 C 448.175781 333.964844 448.144531 333.921875 448.113281 333.882812 C 447.839844 333.523438 448.074219 332.996094 448.402344 332.78125 Z M 443.675781 321.585938 C 434.53125 336.511719 424.425781 350.816406 413.296875 364.332031 C 412.671875 365.085938 412.886719 366.007812 413.503906 366.675781 C 420.34375 374.019531 427.882812 380.472656 436.203125 386.085938 C 437.117188 386.703125 438.371094 386.574219 438.878906 385.476562 C 445.089844 371.953125 452.019531 358.777344 459.742188 346.046875 C 461.3125 343.464844 466.585938 338.230469 464.535156 334.691406 C 463.710938 333.261719 461.296875 332.230469 459.53125 331.414062 C 454.988281 327.9375 450.417969 324.511719 445.828125 321.097656 C 445.039062 320.507812 444.164062 320.796875 443.675781 321.585938 Z M 287.65625 246.109375 C 286.710938 245.441406 287.261719 243.84375 288.472656 244.175781 C 292.058594 245.164062 295.464844 246.84375 298.933594 248.179688 C 300.046875 248.609375 301.199219 248.996094 302.324219 249.433594 C 303.929688 246.515625 309.328125 245.792969 312.15625 244.832031 C 317.328125 243.074219 322.566406 240.855469 328.027344 240.285156 C 329.457031 240.132812 329.867188 242.242188 328.734375 242.890625 C 324.878906 245.097656 320.472656 246.226562 316.285156 247.660156 C 314.304688 248.335938 312 248.800781 310.175781 249.777344 C 308.609375 250.613281 307.65625 251.296875 307.035156 252.210938 C 307.046875 252.226562 307.066406 252.238281 307.078125 252.253906 C 307.554688 252.722656 307.164062 253.417969 306.574219 253.476562 C 306.523438 253.484375 306.472656 253.476562 306.421875 253.484375 C 306.179688 254.171875 306 254.980469 305.847656 256.019531 C 304.574219 264.601562 307.207031 273.609375 304.539062 282.066406 C 304.324219 282.726562 303.394531 282.726562 303.183594 282.066406 C 301.429688 276.503906 301.9375 270.402344 301.910156 264.636719 C 301.894531 261.765625 301.882812 258.894531 301.867188 256.019531 C 301.863281 255.09375 301.738281 253.921875 301.722656 252.757812 C 300.351562 252.289062 299.003906 251.675781 297.695312 251.121094 C 294.285156 249.675781 290.695312 248.257812 287.65625 246.109375 Z M 335.660156 242.164062 C 332.824219 247.484375 329.195312 252.449219 326.460938 257.789062 C 324.585938 261.445312 327.03125 262.402344 329.59375 265.1875 C 331.230469 266.964844 332.398438 268.335938 333.023438 270.675781 C 333.214844 271.40625 332.542969 272.042969 331.824219 271.871094 C 327.550781 270.835938 319.933594 264.085938 320.878906 259.121094 C 321.503906 255.820312 325.382812 252.132812 327.347656 249.511719 C 329.53125 246.597656 331.757812 243.75 334.105469 240.964844 C 334.863281 240.066406 336.164062 241.222656 335.660156 242.164062 Z M 348.714844 230.660156 C 356.257812 237.464844 362.316406 246.484375 368.648438 254.398438 C 369.925781 255.992188 371.601562 259.226562 373.335938 260.253906 C 375.636719 261.613281 378.84375 259.992188 381.195312 259.421875 C 385.316406 258.429688 389.058594 257.429688 393.3125 257.84375 C 394.542969 257.96875 395.136719 259.554688 393.964844 260.261719 C 389.109375 263.195312 383.210938 264.097656 377.664062 265.027344 C 375.78125 265.34375 374.414062 265.378906 373.210938 264.96875 C 370.960938 269.90625 367.640625 274.453125 365.144531 279.304688 C 363.148438 283.179688 361.429688 286.832031 357.632812 289.175781 C 357.0625 289.527344 356.160156 288.929688 356.425781 288.25 C 358.109375 283.988281 360.410156 279.992188 362.523438 275.925781 C 364.773438 271.609375 367.386719 266.902344 371.03125 263.59375 C 370.632812 263.222656 370.222656 262.808594 369.792969 262.289062 C 365.8125 257.503906 362.132812 252.414062 358.34375 247.472656 C 354.472656 242.429688 350.199219 237.464844 347.160156 231.863281 C 346.613281 230.851562 347.890625 229.914062 348.714844 230.660156 Z M 306.570312 289.601562 C 310.226562 288.996094 314.070312 286.0625 317.34375 284.390625 C 322.488281 281.757812 327.621094 279.109375 332.75 276.453125 C 336.027344 280.277344 339.34375 284.085938 342.882812 287.621094 C 347.402344 292.140625 352.695312 295.359375 358.574219 297.824219 C 362.722656 299.5625 367.875 302.980469 371.40625 298.949219 C 375.953125 293.757812 379.496094 287.347656 383.699219 281.839844 C 389.003906 274.875 394.53125 268.085938 400.226562 261.433594 C 400.851562 260.699219 401.058594 259.445312 400.226562 258.734375 C 391.582031 251.351562 383.179688 243.460938 374.09375 236.621094 C 370.484375 233.90625 366.640625 231.636719 362.335938 230.226562 C 357.0625 228.5 351.640625 227.972656 346.871094 224.929688 C 345.59375 224.113281 340.351562 230.464844 335.589844 236.386719 C 329.390625 233.679688 322.714844 230.945312 316.472656 232.546875 C 306.5 235.101562 296.082031 237.765625 286.417969 241.328125 C 286.410156 241.277344 286.40625 241.230469 286.398438 241.183594 C 286.289062 240.296875 284.96875 240.230469 284.96875 241.183594 C 284.96875 241.523438 284.972656 241.863281 284.976562 242.203125 C 284.648438 242.722656 284.679688 243.386719 284.992188 243.875 C 285.121094 252.578125 285.871094 261.277344 286.183594 269.976562 C 286.296875 273.066406 286.089844 275.558594 288.269531 277.917969 C 291.265625 281.15625 295.691406 283.613281 299.210938 286.265625 C 301.46875 287.964844 303.566406 290.101562 306.570312 289.601562 Z M 393.816406 215.6875 C 398.421875 218.542969 402.996094 221.402344 407.527344 224.371094 C 411.867188 227.210938 416.476562 231.074219 421.257812 233.085938 C 426.027344 235.101562 432.328125 230.65625 436.902344 228.746094 C 441.386719 226.871094 445.773438 224.605469 450.699219 224.394531 C 451.699219 224.355469 452.238281 225.703125 451.519531 226.378906 C 447.144531 230.472656 440.8125 232.324219 435.371094 234.59375 C 432.695312 235.707031 428.648438 238.265625 425.253906 238.46875 C 424.988281 241.535156 424.632812 244.570312 424.097656 247.609375 C 423.582031 250.53125 423.394531 254.472656 421 256.488281 C 420.398438 256.996094 419.632812 256.773438 419.347656 256.050781 C 418.265625 253.289062 419.722656 250.070312 420.363281 247.289062 C 421.082031 244.183594 421.835938 241.085938 422.558594 237.984375 C 420.359375 237.015625 418.214844 234.847656 416.25 233.601562 C 413.390625 231.78125 410.546875 229.933594 407.726562 228.054688 C 402.539062 224.601562 397.644531 220.914062 392.824219 216.976562 C 392.09375 216.378906 393.046875 215.210938 393.816406 215.6875 Z M 457.789062 232.425781 C 457.871094 232.507812 457.933594 232.605469 457.980469 232.710938 C 458.144531 233.074219 458.121094 233.535156 457.792969 233.941406 C 457.757812 233.980469 457.714844 234.015625 457.683594 234.058594 C 454.910156 237.398438 450.382812 239.089844 446.433594 240.835938 C 446.113281 240.980469 445.789062 241.117188 445.476562 241.261719 C 442.683594 242.546875 441.3125 244.277344 440.375 247.011719 C 440.285156 247.269531 440.199219 247.523438 440.113281 247.804688 C 439.523438 249.804688 438.953125 251.761719 438.097656 253.667969 C 438.074219 253.722656 438.054688 253.78125 438.027344 253.839844 C 437.796875 254.335938 437.203125 254.398438 436.753906 254.191406 C 436.582031 254.109375 436.4375 253.988281 436.339844 253.832031 C 436.253906 253.691406 436.195312 253.535156 436.210938 253.347656 C 436.644531 248.753906 437.476562 242.757812 441.308594 239.695312 C 443.339844 238.074219 445.878906 237.035156 448.171875 235.824219 C 450.941406 234.367188 453.589844 232.59375 456.710938 232.085938 C 457.167969 232.011719 457.546875 232.164062 457.789062 232.425781 Z M 464.683594 256.261719 C 469.328125 258.714844 474.453125 262.351562 479.511719 263.808594 C 484.574219 265.269531 491.871094 256.996094 495.859375 253.898438 C 499.484375 251.082031 503.269531 247.894531 507.652344 246.386719 C 508.464844 246.109375 509.019531 247.078125 508.695312 247.742188 C 505.726562 253.703125 499.414062 258.292969 494.304688 262.367188 C 491.230469 264.816406 486.839844 269.785156 482.597656 270.183594 C 482.855469 272.480469 482.738281 274.824219 482.660156 277.128906 C 482.570312 279.6875 482.59375 282.175781 481.398438 284.492188 C 481.085938 285.097656 480.007812 285.164062 479.71875 284.492188 C 478.679688 282.09375 478.839844 279.707031 478.976562 277.128906 C 479.101562 274.675781 479.195312 272.117188 479.78125 269.714844 C 478.144531 269.046875 476.59375 267.867188 475.203125 267.058594 C 472.214844 265.320312 469.195312 263.628906 466.203125 261.886719 C 459.867188 258.203125 453.523438 254.503906 447.636719 250.125 C 447.402344 249.945312 447.160156 249.777344 446.921875 249.597656 C 445.824219 248.765625 446.734375 247.164062 448.011719 247.742188 C 448.949219 248.164062 449.875 248.621094 450.800781 249.0625 C 455.5 251.324219 460.070312 253.820312 464.683594 256.261719 Z M 435.339844 315.914062 C 436.109375 317.140625 434.632812 318.308594 433.492188 317.761719 C 426.488281 314.382812 420.550781 307.367188 414.800781 302.214844 C 408.972656 296.992188 401.925781 291.855469 397.503906 285.34375 C 396.824219 284.339844 398.125 283.285156 399.066406 283.78125 C 406.03125 287.429688 412.023438 293.960938 417.867188 299.152344 C 423.660156 304.296875 431.175781 309.316406 435.339844 315.914062 Z M 384.667969 239.445312 C 384.691406 239.464844 384.703125 239.492188 384.730469 239.511719 C 390.574219 243.257812 396.40625 246.960938 402.402344 250.46875 C 406.753906 253.011719 411.242188 256.246094 415.882812 258.542969 C 415.699219 258.636719 415.523438 258.75 415.359375 258.882812 C 413.597656 260.332031 412.089844 261.875 410.859375 263.640625 C 400.464844 273.667969 391.207031 284.980469 380.863281 295.074219 C 380.128906 295.796875 380.128906 297.074219 380.863281 297.796875 C 393.496094 310.195312 406.9375 321.839844 420.011719 333.773438 C 420.78125 334.480469 421.769531 334.570312 422.6875 334.117188 C 429.992188 330.519531 435.609375 324.304688 441.351562 318.683594 C 448.464844 311.722656 455.472656 304.664062 462.398438 297.519531 C 463.242188 296.652344 463.234375 295.277344 462.398438 294.402344 C 449.921875 281.328125 435.933594 269.917969 420.675781 260.265625 C 424.410156 260.542969 428.277344 257.78125 431.523438 256.378906 C 433.050781 255.714844 434.585938 255.078125 436.121094 254.453125 C 435.101562 257.585938 435.0625 260.828125 436.464844 264.113281 C 436.476562 264.140625 456.023438 277.625 458.753906 279.839844 C 466.71875 286.296875 470.273438 291.636719 480.363281 289.636719 C 492.03125 287.324219 528.199219 260.507812 516.410156 244.167969 C 512.34375 238.535156 498.347656 232.988281 492.609375 229.09375 C 478.898438 219.796875 479.078125 219.03125 465.730469 227.410156 C 463.59375 228.746094 460.9375 230.371094 458.085938 232.234375 C 458.242188 231.496094 458.40625 230.761719 458.558594 230.03125 C 459.382812 226.242188 460.410156 223.261719 457.246094 220.554688 C 452.304688 216.316406 445.96875 213.09375 440.527344 209.519531 C 434.554688 205.59375 428.695312 201.300781 422.511719 197.710938 C 418.457031 195.359375 416.117188 196.496094 412.191406 198.597656 C 406.90625 201.421875 401.792969 204.558594 396.914062 208.03125 C 392.828125 210.9375 389.558594 212.929688 388.277344 217.898438 C 386.539062 224.636719 385.023438 231.535156 383.910156 238.402344 C 383.816406 238.992188 384.222656 239.382812 384.667969 239.445312 "/>
</g>
<path style=" stroke:none;fill-rule:nonzero;fill:rgb(100%,100%,100%);fill-opacity:1;" d="M 523.34375 346.402344 C 521.558594 352.839844 519.96875 359.613281 520.964844 366.300781 C 521.089844 367.140625 522.5 367.328125 522.839844 366.542969 C 525.433594 360.53125 526.09375 353.851562 526.964844 347.398438 C 527.277344 345.085938 524.011719 343.996094 523.34375 346.402344 Z M 530.789062 275.820312 C 528.789062 283.957031 528.269531 292.566406 527.425781 300.878906 C 526.539062 309.625 524.875 319.007812 525.929688 327.777344 C 526.101562 329.191406 528.152344 329.71875 528.582031 328.136719 C 530.753906 320.101562 530.6875 311.285156 531.390625 303.027344 C 532.15625 294.140625 533.574219 285.109375 533.472656 276.183594 C 533.453125 274.671875 531.160156 274.296875 530.789062 275.820312 Z M 282.164062 343.273438 C 281.855469 341.351562 278.71875 341.816406 278.777344 343.734375 C 279.039062 351.941406 279.761719 363.703125 284.808594 370.457031 C 285.597656 371.519531 287.453125 371.265625 287.445312 369.746094 C 287.433594 365.5 285.699219 361.382812 284.753906 357.265625 C 283.691406 352.636719 282.917969 347.964844 282.164062 343.273438 Z M 270.40625 274.738281 C 270.21875 273.441406 268.234375 273.59375 267.933594 274.738281 C 266.039062 281.996094 269.042969 291.25 270.277344 298.4375 C 271.886719 307.832031 272.789062 317.621094 276.484375 326.46875 C 276.941406 327.5625 278.570312 327.488281 278.628906 326.175781 C 279.03125 317.441406 276.878906 308.90625 275.308594 300.359375 C 273.742188 291.820312 271.664062 283.316406 270.40625 274.738281 Z M 227.222656 246.722656 C 225.8125 246.316406 224.507812 245.632812 223.105469 245.207031 C 222.316406 244.96875 221.816406 245.972656 222.332031 246.53125 C 223.25 247.53125 224.5 248.125 225.746094 248.601562 C 226.550781 248.910156 228.398438 249.671875 228.917969 248.484375 C 229.386719 247.414062 227.972656 246.9375 227.222656 246.722656 Z M 220.609375 230.554688 C 216.554688 227.746094 211.019531 229.125 210.3125 234.472656 C 209.695312 239.164062 214.289062 243.855469 218.976562 243.578125 C 219.378906 243.554688 219.792969 243.066406 219.496094 242.675781 C 217.972656 240.679688 215.574219 239.449219 214.585938 237.046875 C 214.050781 235.742188 213.949219 234.140625 215.128906 233.136719 C 216.335938 232.109375 218.203125 232.601562 219.558594 233.039062 C 221.105469 233.539062 221.8125 231.390625 220.609375 230.554688 Z M 554.871094 221.730469 C 552.96875 218.925781 552.289062 215.390625 550.351562 212.71875 C 550.015625 212.25 549.199219 212.242188 549.042969 212.890625 C 548.21875 216.269531 550.378906 220.523438 552.144531 223.324219 C 553.566406 225.582031 556.183594 229.773438 559.242188 229.230469 C 559.507812 229.183594 559.707031 228.878906 559.703125 228.625 C 559.648438 226.003906 556.265625 223.792969 554.871094 221.730469 Z M 551.089844 194.878906 C 551.707031 194.972656 552.359375 194.21875 551.769531 193.703125 C 548.863281 191.148438 545.015625 192.984375 543.695312 196.316406 C 542.28125 199.875 543.542969 205.648438 546.699219 207.925781 C 547.3125 208.367188 547.949219 207.746094 548.03125 207.164062 C 548.339844 204.84375 546.820312 202.761719 546.53125 200.488281 C 546.183594 197.746094 547.78125 194.382812 551.089844 194.878906 Z M 531.835938 254.75 C 532.128906 253.027344 529.984375 251.996094 528.964844 253.539062 C 519.207031 268.289062 503.679688 274.765625 487.589844 280.609375 C 469.941406 287.011719 451.523438 291.375 432.886719 293.609375 C 395.367188 298.109375 358.09375 293.316406 322.289062 281.609375 C 304.792969 275.886719 275.203125 269.242188 271.917969 247.222656 C 271.789062 246.335938 270.367188 246.566406 270.375 247.429688 C 270.503906 266.378906 287.664062 274.910156 303.324219 280.753906 C 323.851562 288.414062 344.75 295.105469 366.480469 298.351562 C 406.597656 304.339844 448.089844 300.539062 486.34375 286.976562 C 496.183594 283.488281 506.238281 279.613281 515.253906 274.285156 C 522.855469 269.796875 530.273438 263.878906 531.835938 254.75 Z M 439.566406 201.6875 C 454.316406 203.875 468.359375 208.527344 481.914062 214.667969 C 488.519531 217.65625 494.992188 220.929688 501.433594 224.253906 C 507.160156 227.214844 512.339844 231.199219 518.054688 234.054688 C 519.121094 234.585938 520.105469 233.53125 519.625 232.488281 C 517.019531 226.871094 510.605469 223.773438 505.363281 221.039062 C 498.125 217.265625 490.804688 213.601562 483.34375 210.273438 C 469.5625 204.128906 455.109375 199.316406 439.890625 199.273438 C 438.558594 199.269531 438.160156 201.476562 439.566406 201.6875 Z M 286.433594 231.625 C 295.054688 228.855469 303.214844 224.328125 311.71875 221.128906 C 320.007812 218.011719 328.429688 215.332031 336.976562 213.023438 C 345.527344 210.714844 354.179688 208.808594 362.902344 207.292969 C 371.164062 205.855469 380.425781 205.867188 388.171875 202.488281 C 389.300781 201.992188 388.894531 200.253906 387.839844 199.960938 C 380.066406 197.828125 371.023438 199.820312 363.21875 201.082031 C 353.828125 202.597656 344.546875 204.691406 335.414062 207.347656 C 326.597656 209.914062 317.917969 213.03125 309.453125 216.578125 C 301.378906 219.960938 292.253906 223.53125 285.265625 228.847656 C 284.007812 229.804688 284.644531 232.203125 286.433594 231.625 Z M 503.425781 260.914062 C 497.808594 263.472656 493.164062 268.59375 488.648438 272.683594 C 487.785156 273.464844 488.941406 275.019531 489.910156 274.320312 C 494.929688 270.699219 500.9375 267.179688 504.664062 262.152344 C 505.261719 261.34375 504.144531 260.585938 503.425781 260.914062 Z M 469.839844 271.46875 C 469.257812 273.40625 469.355469 275.667969 469.40625 277.683594 C 469.449219 279.507812 469.453125 281.3125 470.882812 282.625 C 471.316406 283.023438 471.945312 283.027344 472.378906 282.625 C 473.8125 281.3125 473.8125 279.511719 473.859375 277.683594 C 473.90625 275.667969 474.007812 273.410156 473.425781 271.46875 C 472.898438 269.699219 470.367188 269.695312 469.839844 271.46875 Z M 301.574219 242.277344 C 299.957031 241.589844 297.683594 240.296875 296.003906 241.292969 C 295.585938 241.542969 295.34375 242.085938 295.488281 242.566406 C 296.0625 244.457031 298.589844 245.074219 300.238281 245.789062 C 301.871094 246.5 303.972656 247.929688 305.722656 246.929688 C 306.179688 246.667969 306.316406 246.167969 306.234375 245.679688 C 305.894531 243.695312 303.179688 242.960938 301.574219 242.277344 Z M 310.464844 255.957031 C 309.871094 258.964844 310.230469 262.109375 310.433594 265.152344 C 310.621094 267.90625 310.613281 270.863281 312.035156 273.289062 C 312.605469 274.273438 313.875 273.921875 314.25 273 C 315.320312 270.363281 314.847656 267.304688 314.617188 264.527344 C 314.386719 261.683594 314.363281 258.671875 313.425781 255.957031 C 312.96875 254.640625 310.78125 254.359375 310.464844 255.957031 Z M 371.597656 244.246094 C 369.597656 241.257812 367.472656 237.789062 364.316406 235.902344 C 363.222656 235.246094 361.90625 236.558594 362.566406 237.652344 C 364.648438 241.113281 367.089844 244.492188 369.351562 247.84375 C 371.070312 250.398438 373.492188 254.484375 376.8125 254.9375 C 377.601562 255.042969 378.601562 254.433594 378.257812 253.488281 C 377.703125 251.96875 376.660156 251.042969 375.625 249.804688 C 374.148438 248.042969 372.875 246.15625 371.597656 244.246094 Z M 359.417969 263.28125 C 357.015625 266.164062 355.171875 269.433594 353.359375 272.714844 C 351.933594 275.296875 349.613281 278.386719 350.320312 281.429688 C 350.503906 282.203125 351.367188 282.410156 352 282.109375 C 354.78125 280.816406 355.925781 276.859375 357.289062 274.273438 C 358.941406 271.148438 360.734375 268.101562 362.101562 264.839844 C 362.714844 263.371094 360.410156 262.089844 359.417969 263.28125 Z M 421.121094 268.230469 C 417.925781 269.671875 415.375 272.652344 412.941406 275.09375 C 410.460938 277.585938 407.707031 280.058594 405.820312 283.050781 C 405.289062 283.886719 406.371094 285.035156 407.222656 284.453125 C 410.136719 282.449219 412.558594 279.691406 415.117188 277.269531 C 417.632812 274.882812 420.695312 272.574219 422.40625 269.515625 C 422.894531 268.640625 421.945312 267.859375 421.121094 268.230469 Z M 479.554688 229.199219 C 480.339844 228.242188 479.617188 226.847656 478.34375 227.121094 C 473.945312 228.042969 469.925781 231.332031 466.375 233.960938 C 462.648438 236.714844 458.847656 239.515625 455.820312 243.046875 C 454.894531 244.128906 456.058594 245.851562 457.394531 245.085938 C 461.488281 242.730469 465.195312 239.707031 469.089844 237.03125 C 472.582031 234.636719 476.859375 232.5 479.554688 229.199219 Z M 446.277344 255.046875 C 444.8125 255.316406 444.605469 257.015625 444.347656 258.230469 C 444.019531 259.820312 443.476562 261.574219 443.648438 263.195312 C 443.808594 264.703125 446.097656 265.828125 446.890625 264.074219 C 447.523438 262.679688 449.554688 254.429688 446.277344 255.046875 Z M 393.007812 239.363281 C 394.617188 238.007812 394.707031 236.054688 395.023438 234.085938 C 395.363281 231.957031 395.597656 229.816406 395.851562 227.675781 C 396.054688 225.980469 393.308594 225.667969 392.902344 227.277344 C 392.34375 229.5 391.777344 231.710938 391.320312 233.957031 C 390.945312 235.816406 390.511719 237.429688 391.480469 239.164062 C 391.808594 239.753906 392.542969 239.753906 393.007812 239.363281 Z M 403.648438 214.882812 C 407.007812 214.90625 410.207031 212.0625 413.03125 210.457031 C 415.980469 208.773438 419.601562 207.382812 421.515625 204.457031 C 422.121094 203.53125 421.308594 202.472656 420.339844 202.402344 C 416.648438 202.136719 413.0625 204.726562 410.0625 206.570312 C 407.292969 208.269531 403.585938 210.0625 402.398438 213.242188 C 402.097656 214.046875 402.871094 214.878906 403.648438 214.882812 Z M 472.097656 481.222656 C 470.511719 479.90625 468.140625 481.527344 469.175781 483.476562 C 473.082031 490.824219 474.460938 498.5625 473.128906 505.90625 C 474.773438 504.574219 476.410156 503.238281 478.0625 501.921875 C 478.644531 501.460938 479.230469 501 479.808594 500.539062 C 480.195312 493.230469 478.089844 486.191406 472.097656 481.222656 Z M 423.042969 542.191406 C 426.558594 541.402344 430.132812 540.503906 433.695312 539.453125 C 430.527344 542.277344 427.367188 545.113281 424.21875 547.960938 C 422.164062 548.398438 420.121094 548.792969 418.101562 549.148438 C 399.117188 552.488281 379.210938 552.167969 360.78125 546.097656 C 344.714844 540.804688 328.460938 530.78125 321.585938 514.621094 C 316.070312 501.652344 318.125 485.085938 329.898438 476.378906 C 331.035156 475.535156 332.300781 477.34375 331.367188 478.28125 C 318.726562 491.011719 321.472656 510.734375 333.082031 523.066406 C 355.226562 546.589844 393.429688 548.839844 423.042969 542.191406 "/>
</g>
</svg>
